<svg xmlns="http://www.w3.org/2000/svg" xmlns:xlink="http://www.w3.org/1999/xlink" width="68" height="61" viewBox="0 0 68 61">
  <defs>
    <style>
      .cls-1 {
        clip-path: url(#clip-download-flecha);
      }

      .cls-2 {
        fill: #334851;
      }

      .cls-3 {
        fill: #fff;
      }
    </style>
    <clipPath id="clip-download-flecha">
      <rect width="68" height="61"/>
    </clipPath>
  </defs>
  <g id="download-flecha" class="cls-1">
    <rect class="cls-3" width="68" height="61"/>
    <g id="Grupo_102" data-name="Grupo 102" transform="translate(-6226.203 -4238.542)">
      <path id="Trazado_289" data-name="Trazado 289" class="cls-2" d="M6275.112,4259.826a2.477,2.477,0,0,0,0-3.516l-13.161-13.161a2.517,2.517,0,0,0-1.749-.735,2.435,2.435,0,0,0-1.748.735l-13.16,13.161a2.494,2.494,0,0,0,1.748,4.252,2.427,2.427,0,0,0,1.749-.736l8.927-8.927v30.247a2.485,2.485,0,1,0,4.969,0V4250.9l8.928,8.927a2.456,2.456,0,0,0,3.5,0Zm0,0"/>
      <path id="Trazado_290" data-name="Trazado 290" class="cls-2" d="M6279.465,4295.671h-38.524c-6.207,0-11.256-5.547-11.256-12.365v-9.241a2.473,2.473,0,1,1,4.946,0v9.241c0,4.091,2.831,7.419,6.31,7.419h38.524c3.479,0,6.31-3.328,6.31-7.419v-9.241a2.473,2.473,0,0,1,4.946,0v9.241C6290.721,4290.124,6285.672,4295.671,6279.465,4295.671Z"/>
    </g>
  </g>
</svg>
