<?xml version="1.0" encoding="UTF-8"?>
<svg id="Capa_1" data-name="Capa 1" xmlns="http://www.w3.org/2000/svg" viewBox="0 0 77.7146 34.1333">
  <defs>
    <style>
      .cls-1 {
        fill: #f3e0be;
      }
    </style>
  </defs>
  <g id="Grupo_67" data-name="Grupo 67">
    <g id="Grupo_66" data-name="Grupo 66">
      <g id="Grupo_63" data-name="Grupo 63">
        <g id="Grupo_62" data-name="Grupo 62">
          <path id="Trazado_409" data-name="Trazado 409" class="cls-1" d="M33.8553,12.0666c0-1.6411.9-2.6782,2.3-2.6782.9622-.0752,1.836.561,2.06,1.5l-.624.1318c-.1793-.6206-.7543-1.0425-1.4-1.0269-1.117-.0068-1.669.8369-1.676,2.0708s.559,2.0669,1.676,2.0742c.964.0068,1.464-.6001,1.54-1.623h-1.061v-.5259h1.713c.011.1001.014.2612.014.2998.1464,1.2002-.7078,2.2915-1.9078,2.438-.1092.0132-.2192.0186-.3292.0151-1.3819.0059-2.3049-1.0171-2.3049-2.6758Z"/>
          <path id="Trazado_410" data-name="Trazado 410" class="cls-1" d="M38.7403,12.7063c.1226-.9976,1.0308-1.707,2.0284-1.5845.9976.1226,1.707,1.0308,1.5844,2.0283-.1124.915-.8911,1.6016-1.8128,1.5981-1.004-.0024-1.8162-.8179-1.8138-1.8223.0002-.0732.0048-.147.0139-.2197ZM41.6963,12.7063c0-.8691-.385-1.4302-1.152-1.4302-.784,0-1.148.5859-1.148,1.4302,0,.873.392,1.438,1.148,1.438.774.0005,1.152-.5869,1.152-1.438Z"/>
          <path id="Trazado_411" data-name="Trazado 411" class="cls-1" d="M42.9733,14.6413v-5.1499h.621v1.6382c.2853-.3052.6885-.4722,1.106-.458,1.041,0,1.676.877,1.676,2.0352s-.631,2.042-1.679,2.042c-.4547.0137-.8892-.1875-1.173-.543v.436l-.551-.0005ZM45.7203,12.7063c0-.8149-.354-1.4521-1.117-1.4521-.732,0-1.079.6001-1.079,1.4521s.34,1.459,1.1,1.459c.731.0005,1.0959-.6357,1.0959-1.459h0Z"/>
          <path id="Trazado_412" data-name="Trazado 412" class="cls-1" d="M47.0703,10.0964v-.6582h.617v.6582h-.617ZM47.0703,14.6413v-3.8618h.617v3.8618h-.617Z"/>
          <path id="Trazado_413" data-name="Trazado 413" class="cls-1" d="M48.3813,12.7356c-.1342-.9966.565-1.9136,1.5618-2.0479.079-.0103.1585-.0161.2382-.0161,1.128,0,1.787.8442,1.731,2.2178h-2.872c.048.7998.451,1.2549,1.141,1.2549.4643.0166.8911-.2534,1.075-.6802l.594.2109c-.2739.6616-.9252,1.0874-1.641,1.0732-1.0034.0117-1.8265-.792-1.8384-1.7954-.0009-.0723.0026-.145.0104-.2173ZM49.0543,12.3776h2.22c-.076-.7578-.433-1.1328-1.068-1.1328-.6699-.0005-1.062.3999-1.1509,1.1328h-.001Z"/>
          <path id="Trazado_414" data-name="Trazado 414" class="cls-1" d="M52.5483,14.6413v-3.8618h.551v.6108c.079-.146.1876-.2734.319-.375.3025-.23.6906-.3164,1.062-.2358v.6001c-.2931-.0825-.6078-.0288-.857.146-.333.2974-.502.7373-.454,1.1812v1.938l-.621-.0034Z"/>
          <path id="Trazado_415" data-name="Trazado 415" class="cls-1" d="M54.9973,14.6413v-3.8618h.558v.5c.2905-.3955.7587-.6206,1.249-.6001,1.207,0,1.492,1.0942,1.492,1.8271v2.1348h-.625v-1.9351c0-.7261-.225-1.4229-1.016-1.4229-.621,0-1.031.4292-1.031,1.3232v2.0352l-.627-.0005Z"/>
          <path id="Trazado_416" data-name="Trazado 416" class="cls-1" d="M58.8133,12.7063c.1226-.9976,1.0308-1.707,2.0284-1.5845.9976.1226,1.707,1.0308,1.5844,2.0283-.1124.915-.8911,1.6016-1.8128,1.5981-1.004-.0024-1.8162-.8179-1.8138-1.8223.0002-.0732.0048-.147.0139-.2197ZM61.7693,12.7063c0-.8691-.385-1.4302-1.152-1.4302-.784,0-1.148.5859-1.148,1.4302,0,.873.392,1.438,1.148,1.438.774.0005,1.152-.5869,1.152-1.438Z"/>
          <path id="Trazado_417" data-name="Trazado 417" class="cls-1" d="M33.9253,20.0896c0-1.1592.635-2.0352,1.676-2.0352.4175-.0142.8207.1528,1.106.458v-1.6382h.621v5.1499h-.551v-.436c-.2841.355-.7184.5562-1.173.543-1.049.0005-1.679-.8828-1.679-2.0415ZM36.7773,20.0896c0-.855-.347-1.4521-1.079-1.4521-.764,0-1.117.6372-1.117,1.4521s.36,1.459,1.1,1.459c.756,0,1.096-.6108,1.096-1.459Z"/>
          <path id="Trazado_418" data-name="Trazado 418" class="cls-1" d="M37.9553,20.1184c-.1348-.9961.5635-1.9126,1.5596-2.0474.0797-.0107.16-.0166.2404-.0166,1.127,0,1.786.8442,1.731,2.2178h-2.871c.049.7998.451,1.2549,1.142,1.2549.4642.0161.8909-.2539,1.075-.6802l.593.2109c-.2735.6616-.925,1.0879-1.641,1.0732-1.004.0117-1.8275-.7925-1.8394-1.7964-.0009-.0723.0026-.1445.0103-.2163ZM38.6283,19.7605h2.22c-.076-.7578-.434-1.1328-1.069-1.1328-.671,0-1.063.3999-1.153,1.1328h.002Z"/>
          <path id="Trazado_419" data-name="Trazado 419" class="cls-1" d="M43.4373,22.0246v-5.1499h.618v5.1499h-.618Z"/>
          <path id="Trazado_420" data-name="Trazado 420" class="cls-1" d="M44.7493,20.9807c-.0136-.5522.3759-1.0327.919-1.1338.5551-.1279,1.117-.2246,1.683-.29-.018-.6152-.274-.9082-.923-.9082-.4402-.0376-.8433.248-.954.6758l-.586-.1831c.1735-.6968.8328-1.1602,1.547-1.0869.5782-.0635,1.1355.2368,1.4.7549.0956.2646.1367.5454.121.8262v2.3892h-.548v-.6001c-.2985.4717-.8307.7432-1.388.708-.6285.0698-1.1945-.3833-1.2642-1.0117-.0052-.0469-.0074-.0933-.0069-.1401ZM47.2812,20.7087c.0441-.1997.0652-.4033.063-.6079-.4715.0483-.9392.1279-1.4.2388-.309.1001-.583.2759-.583.6372,0,.3179.218.6221.753.6221.5574.0386,1.0569-.3423,1.1671-.8901h0Z"/>
          <path id="Trazado_421" data-name="Trazado 421" class="cls-1" d="M49.9703,22.0246v-5.1499h1.974c.1232,0,.2463.0093.368.0288.8809.2271,1.4111,1.125,1.1843,2.0059-.1496.5806-.6033,1.0347-1.1843,1.1841-.1218.0186-.2448.0278-.368.0278h-1.356v1.8999l-.618.0034ZM50.5883,19.5178h1.335c.1049.001.2095-.0103.312-.0322.5452-.207.819-.8174.6118-1.3623-.1072-.2822-.3298-.5044-.6118-.6118-.1025-.022-.2072-.0332-.312-.0322h-1.335v2.0386Z"/>
          <path id="Trazado_422" data-name="Trazado 422" class="cls-1" d="M54.1023,22.0246v-3.8618h.551v.6108c.0794-.146.1884-.2734.32-.375.3022-.23.6898-.3159,1.061-.2358v.6001c-.2931-.082-.6075-.0283-.857.146-.3328.2974-.5019.7373-.454,1.1812v1.938l-.621-.0034Z"/>
          <path id="Trazado_423" data-name="Trazado 423" class="cls-1" d="M56.2773,20.0896c.1226-.9976,1.0308-1.707,2.0284-1.5845.9976.1226,1.707,1.0308,1.5844,2.0283-.1124.915-.8911,1.6016-1.8128,1.5981-1.004-.0024-1.8162-.8179-1.8138-1.8223.0002-.0732.0048-.147.0139-.2197ZM59.2333,20.0896c0-.8691-.385-1.4302-1.152-1.4302-.784,0-1.148.5859-1.148,1.4302,0,.873.392,1.438,1.148,1.438.774,0,1.152-.5869,1.152-1.438Z"/>
          <path id="Trazado_424" data-name="Trazado 424" class="cls-1" d="M61.3873,22.0246l-1.36-3.8618h.625l1.051,3.0498,1.048-3.0498h.628l-1.36,3.8618h-.632Z"/>
          <path id="Trazado_425" data-name="Trazado 425" class="cls-1" d="M63.9343,17.4797v-.6582h.621v.6582h-.621ZM63.9343,22.0246v-3.8618h.621v3.8618h-.621Z"/>
          <path id="Trazado_426" data-name="Trazado 426" class="cls-1" d="M65.4553,22.0246v-3.8618h.555v.5c.2906-.3955.7588-.6201,1.249-.6001,1.207,0,1.491,1.0942,1.491,1.8271v2.1348h-.624v-1.9351c0-.7261-.225-1.4229-1.016-1.4229-.621,0-1.031.4292-1.031,1.3232v2.0352l-.624-.0005Z"/>
          <path id="Trazado_427" data-name="Trazado 427" class="cls-1" d="M69.2663,20.0964c-.1276-.9902.5718-1.8965,1.5621-2.0244.0769-.0098.1544-.0146.2319-.0146.7283-.0425,1.3895.4229,1.595,1.123l-.61.1899c-.1395-.4282-.5418-.7153-.992-.708-.771,0-1.124.6001-1.131,1.4341.007.8618.385,1.4341,1.131,1.4341.4418.0234.8438-.2544.978-.6758l.624.168c-.2202.6899-.8765,1.146-1.6,1.1118-1.144-.0029-1.7791-.8579-1.7891-2.0381Z"/>
          <path id="Trazado_428" data-name="Trazado 428" class="cls-1" d="M73.1933,17.4797v-.6582h.618v.6582h-.618ZM73.1933,22.0246v-3.8618h.618v3.8618h-.618Z"/>
          <path id="Trazado_429" data-name="Trazado 429" class="cls-1" d="M74.5043,20.9807c-.0131-.5522.3766-1.0327.92-1.1338.5548-.1279,1.1163-.2251,1.682-.29-.017-.6152-.274-.9082-.923-.9082-.4401-.0371-.843.2485-.954.6758l-.586-.1831c.1738-.6963.8328-1.1597,1.547-1.0869.5786-.0659,1.137.2354,1.4.7549.0956.2646.1367.5454.121.8262v2.3892h-.548v-.6001c-.2981.4717-.83.7437-1.387.708-.6291.0698-1.1955-.3838-1.2651-1.0127-.0051-.0464-.0074-.0928-.0069-.1392ZM77.0373,20.7087c.0443-.1997.0651-.4033.062-.6079-.4714.0483-.9391.1284-1.4.2388-.309.1001-.583.2759-.583.6372,0,.3179.219.6221.753.6221.5576.0386,1.0574-.3423,1.168-.8901Z"/>
          <path id="Trazado_430" data-name="Trazado 430" class="cls-1" d="M33.9253,27.4724c0-1.1592.635-2.0352,1.676-2.0352.4175-.0142.8207.1528,1.106.458v-1.6382h.621v5.1499h-.551v-.437c-.2836.356-.7182.5571-1.173.5439-1.049.0005-1.679-.8823-1.679-2.0415ZM36.7773,27.4724c0-.855-.347-1.4521-1.079-1.4521-.764,0-1.117.6372-1.117,1.4521s.36,1.459,1.1,1.459c.756,0,1.096-.6108,1.096-1.459Z"/>
          <path id="Trazado_431" data-name="Trazado 431" class="cls-1" d="M37.9553,27.5017c-.1348-.9961.5635-1.9126,1.5596-2.0474.0797-.0107.16-.0166.2404-.0166,1.127,0,1.786.8442,1.731,2.2168h-2.871c.049.7998.451,1.2559,1.142,1.2559.4642.0161.8909-.2539,1.075-.6802l.593.2109c-.2735.6616-.925,1.0879-1.641,1.0732-1.0034.0127-1.827-.791-1.8395-1.7944-.0009-.0728.0026-.1455.0104-.2183ZM38.6283,27.1438h2.22c-.076-.7578-.434-1.1338-1.069-1.1338-.671-.0005-1.063.4004-1.153,1.1333l.002.0005Z"/>
          <path id="Trazado_432" data-name="Trazado 432" class="cls-1" d="M42.1893,29.4074v-5.1499h.617v5.1499h-.617Z"/>
          <path id="Trazado_433" data-name="Trazado 433" class="cls-1" d="M44.9553,29.4074v-5.1499h.624l2.606,4.0229v-4.0229h.624v5.1499h-.624l-2.606-4.0269v4.0269h-.624Z"/>
          <path id="Trazado_434" data-name="Trazado 434" class="cls-1" d="M49.4363,27.5017c-.1348-.9961.5635-1.9126,1.5596-2.0474.0797-.0107.16-.0166.2404-.0166,1.127,0,1.786.8442,1.731,2.2168h-2.873c.049.7998.451,1.2559,1.142,1.2559.4642.0161.8909-.2539,1.075-.6802l.593.2109c-.2734.6616-.9244,1.0874-1.64,1.0732-1.0034.0117-1.8265-.792-1.8385-1.7954-.0009-.0723.0026-.145.0104-.2173ZM50.1093,27.1438h2.22c-.076-.7578-.434-1.1338-1.068-1.1338-.6699-.0005-1.062.4004-1.1519,1.1333v.0005Z"/>
          <path id="Trazado_435" data-name="Trazado 435" class="cls-1" d="M53.5333,27.6794v-2.1348h.624v1.9351c0,.7261.226,1.4229,1.017,1.4229.621,0,1.03-.4292,1.03-1.3232v-2.0352h.621v3.8628h-.551v-.5c-.291.395-.7589.6196-1.249.6001-1.208.0005-1.492-1.0938-1.492-1.8276Z"/>
          <path id="Trazado_436" data-name="Trazado 436" class="cls-1" d="M57.4553,27.4724c0-1.1592.635-2.0352,1.675-2.0352.4553-.0156.8911.1846,1.176.54v-.4331h.552v5.5791h-.621v-2.0742c-.2821.3066-.6833.4766-1.1.4648-1.0561.0005-1.6821-.8823-1.6821-2.0415ZM60.3063,27.4724c0-.855-.346-1.4521-1.079-1.4521-.763,0-1.117.6372-1.117,1.4521s.361,1.459,1.1,1.459c.751,0,1.0909-.6108,1.0909-1.459h.0051Z"/>
          <path id="Trazado_437" data-name="Trazado 437" class="cls-1" d="M61.6163,27.6794v-2.1348h.625v1.9351c0,.7261.225,1.4229,1.016,1.4229.621,0,1.031-.4292,1.031-1.3232v-2.0352h.621v3.8628h-.554v-.5c-.291.395-.7589.6196-1.249.6001-1.205.0005-1.49-1.0938-1.49-1.8276Z"/>
          <path id="Trazado_438" data-name="Trazado 438" class="cls-1" d="M65.5333,27.5017c-.1342-.9966.565-1.9136,1.5618-2.0479.079-.0103.1585-.0161.2382-.0161,1.128,0,1.787.8442,1.731,2.2168h-2.872c.048.7998.451,1.2559,1.141,1.2559.4643.0166.8911-.2534,1.075-.6802l.594.2109c-.2739.6616-.9252,1.0874-1.641,1.0732-1.0034.0117-1.8265-.792-1.8384-1.7954-.0009-.0723.0026-.145.0104-.2173ZM66.2063,27.1438h2.22c-.076-.7578-.433-1.1338-1.068-1.1338-.67-.0005-1.062.4004-1.152,1.1333v.0005ZM67.6153,23.7746h.5l-.455,1.1802h-.5l.455-1.1802Z"/>
          <path id="Trazado_439" data-name="Trazado 439" class="cls-1" d="M69.5923,29.4074v-3.8628h.555v.5c.2907-.395.7589-.6201,1.249-.6001,1.207,0,1.492,1.0952,1.492,1.8281v2.1348h-.625v-1.9351c0-.7261-.225-1.4229-1.016-1.4229-.621,0-1.031.4292-1.031,1.3232v2.0352l-.624-.0005Z"/>
        </g>
      </g>
      <g id="Grupo_65" data-name="Grupo 65">
        <g id="Grupo_64" data-name="Grupo 64">
          <path id="Trazado_440" data-name="Trazado 440" class="cls-1" d="M6.4483,19.6477l-.161.4761-.466.146.462.166.142.48.161-.4761.466-.147-.462-.166-.142-.479Z"/>
          <path id="Trazado_441" data-name="Trazado 441" class="cls-1" d="M6.4553,17.7326l-.161.4771-.466.146.462.166.141.48.161-.4771.466-.146-.462-.166-.141-.48Z"/>
          <path id="Trazado_442" data-name="Trazado 442" class="cls-1" d="M6.9183,15.9563l-.161.4761-.466.146.462.166.142.48.161-.4761.466-.147-.462-.166-.142-.479Z"/>
          <path id="Trazado_443" data-name="Trazado 443" class="cls-1" d="M7.5553,14.2483l-.161.4761-.466.146.462.166.142.48.161-.4771.466-.146-.462-.166-.142-.479Z"/>
          <path id="Trazado_444" data-name="Trazado 444" class="cls-1" d="M8.7553,12.8523l-.16.4771-.466.146.462.166.142.48.161-.4761.466-.146-.462-.166-.1431-.481Z"/>
          <path id="Trazado_445" data-name="Trazado 445" class="cls-1" d="M10.1423,11.7795l-.161.4761-.466.146.462.166.142.48.161-.4761.466-.146-.463-.166-.141-.48Z"/>
          <path id="Trazado_446" data-name="Trazado 446" class="cls-1" d="M11.6423,11.0295l-.161.4761-.466.146.463.166.142.48.161-.4771.466-.146-.463-.166-.142-.479Z"/>
          <path id="Trazado_447" data-name="Trazado 447" class="cls-1" d="M13.4333,10.5564l-.161.4771-.466.146.462.166.142.48.161-.4761.466-.146-.462-.166-.142-.481Z"/>
          <path id="Trazado_448" data-name="Trazado 448" class="cls-1" d="M22.2083,19.6477l-.142.48-.463.166.466.147.161.4761.142-.48.462-.166-.466-.146-.16-.4771Z"/>
          <path id="Trazado_449" data-name="Trazado 449" class="cls-1" d="M22.2183,18.9963l.142-.48.462-.166-.466-.146-.161-.4771-.142.48-.462.166.466.146.161.4771Z"/>
          <path id="Trazado_450" data-name="Trazado 450" class="cls-1" d="M21.7553,17.2243l.142-.48.462-.166-.466-.146-.16-.4761-.142.479-.462.166.466.147.16.4761Z"/>
          <path id="Trazado_451" data-name="Trazado 451" class="cls-1" d="M21.7263,14.8703l-.466-.146-.161-.4761-.142.48-.462.166.466.146.161.4771.141-.48.463-.167Z"/>
          <path id="Trazado_452" data-name="Trazado 452" class="cls-1" d="M20.0623,13.3283l-.16-.4771-.142.48-.463.166.466.146.161.4761.142-.48.462-.166-.466-.145Z"/>
          <path id="Trazado_453" data-name="Trazado 453" class="cls-1" d="M18.5143,11.7795l-.142.48-.462.166.466.146.161.4761.142-.48.462-.166-.466-.146-.161-.4761Z"/>
          <path id="Trazado_454" data-name="Trazado 454" class="cls-1" d="M17.0143,11.0295l-.142.479-.462.166.465.146.161.4771.142-.48.462-.166-.466-.146-.16-.4761Z"/>
          <path id="Trazado_455" data-name="Trazado 455" class="cls-1" d="M15.2233,10.5564l-.142.48-.462.166.466.146.161.4761.142-.48.462-.166-.466-.146-.161-.4761Z"/>
          <path id="Trazado_456" data-name="Trazado 456" class="cls-1" d="M27.4923,27.3796l-1.875.9482c-.3644.1865-.6396.5103-.765.8999l-.014.063.058.0259c.0975.0371.2017.0542.306.0498.2763-.0112.5504-.0537.817-.127l2.02-1.1118c.181-.1494.2209-.4111.093-.6079-.1182-.2109-.385-.2866-.5961-.1685-.0152.0088-.0298.0181-.0439.0283Z"/>
          <path id="Trazado_457" data-name="Trazado 457" class="cls-1" d="M5.6793,9.2356c.6508-.2646,1.3925-.1709,1.957.2471l5.647-.8252c.3464-.0449.6957-.0645,1.045-.0581h0c.3072-.0039.6143.0137.919.0532l6.288.915c.4951-.0479.9565-.272,1.3-.6318.0505-.0513.0568-.1313.015-.1899-.0413-.0576-.1193-.0747-.181-.04-.688.3999-1.418.0288-2.191-.3652h0c-.5433-.3491-1.1715-.5435-1.817-.562.4082-.4067.9321-.6777,1.5-.7759.8793-.1147,1.6376-.6738,2.007-1.48.028-.0659.0043-.1426-.056-.1812-.0607-.0366-.1394-.0215-.182.0352-.488.6411-1.3.585-2.162.5259-.6358-.106-1.2886-.0371-1.888.2002.2262-.5366.6097-.9927,1.1-1.3071.7684-.4556,1.2568-1.2666,1.3-2.1592.002-.0718-.0493-.1333-.12-.145-.0694-.0098-.1354.0327-.155.1001-.213.7852-.985,1.0552-1.8,1.3398-.6299.1538-1.2071.4736-1.671.9268.0101-.5864.1934-1.1567.527-1.6392.5403-.7188.6901-1.6577.4-2.5088-.0245-.0664-.095-.1045-.164-.0879-.067.021-.1092.0874-.1.1572.094.8101-.519,1.3628-1.168,1.9482-.5266.3911-.9406.9146-1.2,1.5171-.209-.5498-.2515-1.1484-.122-1.7222.236-.8677.0266-1.7959-.559-2.478-.0477-.0527-.1279-.0596-.184-.0161-.0568.0439-.0732.123-.039.186.388.7109.027,1.4629-.355,2.2612-.3403.5674-.528,1.2129-.545,1.874-.3986-.4282-.6605-.9653-.752-1.543-.0998-.8872-.6395-1.665-1.436-2.0688-.0649-.0288-.1411-.0034-.176.0581-.0361.062-.0222.1411.033.187.622.5.568,1.3418.511,2.229-.1038.6543-.0377,1.3242.192,1.9458-.5272-.2388-.9694-.6323-1.268-1.1279-.4188-.7798-1.2105-1.2886-2.094-1.3452-.0712-.001-.1319.0513-.141.1221-.0112.0708.0314.1392.1.1602.762.2202,1.023,1.0161,1.3,1.8579.1453.6426.4555,1.2358.9,1.7222-.5733-.0122-1.1287-.2012-1.59-.542-.6815-.5576-1.606-.7158-2.434-.416-.0665.0273-.1028.0991-.085.1689.0163.0688.0815.1147.152.1069.785-.1001,1.322.5352,1.89,1.2002.3713.5356.8792.9624,1.471,1.2358-.5299.2148-1.1136.2593-1.67.127-.8455-.2412-1.7557-.0234-2.4.5752-.0508.0508-.0576.1313-.016.1899.0387.0518.1085.0698.1672.0425Z"/>
          <path id="Trazado_458" data-name="Trazado 458" class="cls-1" d="M9.5893,32.4206l-.086-.0371h0l-1.435-.6182c-.207-.0825-.42-.1494-.637-.2002-.336-.0737-.6875-.0088-.975.1802-.114.0659.006.1382.006.1382,0,0,1.786.7822,1.858.7998.098.0322.1983.0576.3.0752.3377.0669.6881-.0054.972-.2002.1181-.0679-.0029-.1377-.0029-.1377Z"/>
          <path id="Trazado_459" data-name="Trazado 459" class="cls-1" d="M6.2553,30.9314l-.086-.0371h0l-1.435-.6182c-.2069-.083-.4199-.1499-.637-.2002-.3359-.0737-.6873-.0093-.975.1792-.114.0659.006.1382.006.1382,0,0,1.787.7822,1.859.7998.0978.0332.1982.0581.3.0752.3374.0669.6875-.0054.971-.2002.113-.0664-.003-.1367-.003-.1367Z"/>
          <path id="Trazado_460" data-name="Trazado 460" class="cls-1" d="M12.9853,33.7697l-.086-.0361h0l-.92-.3999-.086-.0371-.087-.0381-.342-.147c-.2069-.083-.4199-.1499-.637-.2002-.336-.0742-.6876-.0093-.975.1802-.113.0649.007.1372.007.1372,0,0,1.786.7832,1.858.7998.042.0132.084.0259.125.0361s.065.0181.094.0249.06.0122.084.0142h.008c.3348.0649.6818-.0068.963-.2002.115-.064-.006-.1338-.006-.1338Z"/>
          <path id="Trazado_461" data-name="Trazado 461" class="cls-1" d="M3.7603,29.3186l.057-.0259-.014-.063c-.1249-.3896-.4003-.7139-.765-.8999l-1.875-.9482c-.1954-.1416-.4686-.0981-.6104.0972-.0104.0142-.02.0293-.0286.0449-.1279.1968-.088.4585.093.6079l2.019,1.1118c.267.0732.5414.1157.818.127.1044.0039.2086-.0137.306-.0518Z"/>
          <path id="Trazado_462" data-name="Trazado 462" class="cls-1" d="M21.2233,31.5647c-.2171.0508-.4301.1177-.637.2002l-1.435.6182h0l-.086.0371s-.121.0698-.008.1372c.2835.1948.6336.2671.971.2002.1017-.0176.202-.0425.3-.0752.072-.0142,1.859-.7998,1.859-.7998,0,0,.12-.0718.006-.1382-.2863-.1875-.6356-.252-.97-.1797Z"/>
          <path id="Trazado_463" data-name="Trazado 463" class="cls-1" d="M24.5623,30.0764c-.2172.0503-.4302.1172-.637.2002l-1.436.6182h0l-.085.0371s-.121.0698-.009.1372c.2839.1948.6343.2671.972.2002.1018-.0171.2021-.042.3-.0752.072-.0142,1.858-.7998,1.858-.7998,0,0,.12-.0718.006-.1382-.2859-.187-.6349-.252-.9689-.1797Z"/>
          <path id="Trazado_464" data-name="Trazado 464" class="cls-1" d="M17.8263,32.9143c-.2167.0508-.4294.1177-.636.2002l-.342.147-.087.0381-.087.0371-.92.3999h0l-.085.0361s-.122.0698-.009.1372c.2812.1929.6282.2651.963.2002h.009c.024,0,.052-.0078.083-.0142s.062-.0151.094-.0249.084-.0229.126-.0361c.072-.0132,1.858-.7998,1.858-.7998,0,0,.12-.0718.006-.1372-.2863-.1899-.6372-.2559-.973-.1836Z"/>
          <path id="Trazado_465" data-name="Trazado 465" class="cls-1" d="M28.4733,11.4475c-.1719-.2642-.45-.4399-.762-.4829l-12.464-1.814c-.6106-.0708-1.2274-.0708-1.838,0L.9443,10.9646c-.3118.043-.5895.2192-.761.4829-.1736.2695-.2269.5991-.147.9092l3.2,13.1318.713,2.9302c.181.6274.6161,1.1504,1.2,1.4429l5.994,2.5942.718.311.084.0361.084.0361.481.208.894.3872c.267.1069.5514.1636.839.167h.175c.2879-.0034.5727-.0601.84-.167l.894-.3872.48-.208.085-.0361.083-.0361.718-.311,5.994-2.5942c.5836-.293,1.0185-.8159,1.2-1.4429l.713-2.9302,3.2-13.1318c.0779-.311.0228-.6406-.1521-.9092ZM7.2463,29.7087l-.084-.0381h0l-1.422-.6479c-.2015-.0981-.3954-.2109-.58-.3379-.2852-.2031-.4803-.5088-.544-.853-.033-.1299.1-.0898.1-.0898,0,0,1.781.7998,1.84.8418.0916.0508.179.1089.261.1738.2819.2075.4723.5166.531.8618.03.1313-.1021.0894-.1021.0894h0ZM10.5333,31.3195l-.084-.0391h0l-1.422-.6489c-.2015-.0981-.3954-.2109-.58-.3379-.2846-.2036-.4795-.5093-.544-.853-.033-.1299.1-.0898.1-.0898,0,0,1.78.7998,1.839.8418.0913.0513.1786.1094.261.1738.2817.208.4721.5166.531.8618.032.1343-.101.0913-.101.0913ZM11.9973,29.7678c-.422-.2793-.8763-.5068-1.353-.6768,0,0-.122-.0581-.158-.0801-.6267-.314-1.1388-.8169-1.464-1.438-.126-.2568-.237-.5229-.348-.7891-.1-.2271-.192-.4551-.3-.6758-.1187-.2476-.1843-.5176-.193-.792-.0063-.2275.0087-.4556.045-.6802.052-.3511.1-.7002.129-1.0562.019-.2251,0-.4531.011-.6792.007-.165.109-.2319.25-.1499.1016.064.1879.1494.253.25.1222.2261.1793.4819.165.7388.005.1348.011.269.017.3999h0l.005.749c-.5.21.191,1.2632.325,1.4468.1959.2817.4118.5488.646.7998.1.1138.176.1938.206.2271.0202.021.0491.0312.078.0278.0217-.0015.0419-.0112.057-.0269.0376-.0386.0376-.1006,0-.1392-.4633-.4624-.8612-.9858-1.183-1.5562-.0475-.0854-.0848-.1768-.111-.271-.071-.2998.177-.4312.452-.248l.031.022c.0754.0503.1462.1074.212.1699.331.3271.705.6001,1.039.9209.2205.2378.4811.4346.77.582,0,0,.469.1611.7.2231.4135.1099.8131.2671,1.191.4678.072.0601.228.1938.246.2002-.3065.3408-.56.7261-.752,1.1421-.2145.4438-.396.9033-.543,1.374-.0266-.062-.0602-.1211-.1-.1758l-.013-.0161c-.0897-.1108-.1939-.209-.3099-.2915v.0005ZM12.9883,22.3918c-.2473.1616-.5789.0923-.7405-.1553-.025-.0381-.0449-.0791-.0594-.1226l-.381-.7642c-.0576-.1084-.1801-.165-.3-.1392l-1.572.3931c-.11.0269-.223.0098-.25-.041s.023-.1479.114-.2192l4.145-3.249v9.4331c-.0743.0537-.1439.1138-.208.1792v-5.7251l-.748.4102ZM11.6104,26.6389c-.2668-.1553-.5096-.3481-.721-.5732-.017-.0171-.054-1.2051-.07-1.7148,0-.127.082-.189.187-.1211.1042.0591.1887.1479.243.2549.088.2188.1445.4487.168.6831.0149.3755.0503.7505.106,1.1221.0204.1182.0495.2349.0869.3486v.0005ZM10.7354,25.927c-.222-.208-.473-.415-.666-.6001-.035-.0322-.028-.1182-.03-.166-.021-.5498-.036-1.1001-.054-1.6489-.006-.1821.08-.2422.241-.1602.153.0747.2634.2153.3.3818.0568.2637.0963.5308.118.7998.03.4321.067.9219.091,1.3931v.0005ZM9.8093,23.9489c.025.3901.064.8169.083,1.231-.1913-.1694-.4288-.2778-.682-.311,0-.0161-.047-1.4551-.06-1.749-.011-.2158.105-.2998.285-.1821.0964.0703.1766.1611.235.2651.106.2334.1537.4893.139.7456v.0005ZM16.1443,32.7487l-.321.1392c-.331-2.5542-.712-3.7002-.819-3.7002-.062,0,.178.3389.622,3.7891l-.376.1621c-.2657.1064-.5488.1631-.835.167.005-.5659.005-1.1001,0-1.3091,0-.0503-.0408-.0908-.091-.0908s-.091.0405-.091.0908v1.3091c-.2866-.0039-.57-.0601-.836-.167l-.376-.1621c.445-3.4502.685-3.7891.623-3.7891-.107,0-.488,1.1499-.819,3.7002l-.322-.1392-.442-.1919c.013-.0859.027-.1719.042-.2568.008-.0518.018-.1001.027-.1558l.018-.1001c.01-.0552.021-.1089.032-.1641.005-.0288.011-.0591.017-.0889l.033-.1572c.007-.0308.013-.063.02-.0928l.033-.145.024-.1001c.01-.043.021-.085.031-.127s.02-.0801.03-.1191.019-.0708.028-.1069.025-.0928.037-.1392l.023-.0801c.015-.0552.031-.1099.047-.1641.1585-.5464.3618-1.0786.608-1.5918.1857-.4087.434-.7856.736-1.1172.02-.02.04-.04.06-.0581l.035-.0308c.1451-.2085.4319-.2598.6404-.1147.0447.0312.0835.0698.1146.1147l.035.0308c.02.0181.04.0381.06.0581.302.332.5504.7085.736,1.1172.2465.5127.4502,1.0454.609,1.5918.015.0542.031.1089.046.1641.008.0269.016.0532.023.0801.013.0459.026.0928.038.1392s.018.0708.028.1069.019.0791.029.1191.021.084.032.127l.024.1001.033.145.019.0928c.012.0522.023.1045.033.1572l.018.0889c.011.0552.022.1089.032.1641.006.0332.011.0659.017.1001.01.0518.019.1001.028.1558.015.085.028.1709.041.2568l-.4342.1919ZM18.9694,21.5666c-.028.0508-.14.0679-.25.041l-1.572-.3931c-.1183-.0239-.2382.0327-.295.1392l-.382.7642c-.0939.2803-.3971.4312-.6772.3374-.0433-.0146-.0845-.0347-.1227-.0596l-.754-.4102v5.7251c-.0641-.0654-.1337-.1255-.208-.1792l.005-9.4331,4.145,3.249c.087.0669.1379.166.111.2153v.0039ZM18.9854,23.2068c.0585-.1045.139-.1948.236-.2651.179-.1162.295-.0342.285.1821-.013.2939-.059,1.7329-.06,1.749-.2535.0332-.4913.1416-.683.311.019-.4141.059-.8408.083-1.231-.0155-.2578.0322-.5151.1389-.7505v.0044ZM18.6713,23.5066c-.019.5488-.034,1.1001-.054,1.6489,0,.0479,0,.1338-.03.166-.193.1899-.444.3999-.666.6001.023-.4712.06-.9609.094-1.3999.0221-.269.0618-.5361.119-.7998.0365-.1665.147-.3071.3-.3818.156-.0757.242-.0156.2371.1665ZM17.8363,24.3508c-.015.5098-.053,1.7002-.07,1.7148-.2114.2251-.4542.418-.721.5732.0374-.1143.0665-.231.087-.3491.0557-.3716.0911-.7466.106-1.1221.0236-.2344.0801-.4644.168-.6831.0544-.1074.1393-.1958.244-.2549.105-.0684.1899-.0063.186.1206v.0005ZM16.6593,29.7678c-.1151.0835-.2187.1816-.308.292l-.013.0161c-.0395.0547-.073.1138-.1.1758-.1463-.4707-.3275-.9302-.542-1.374-.1924-.416-.4459-.8008-.752-1.1421.017,0,.174-.1392.245-.2002.3779-.2007.7775-.3574,1.191-.4678.228-.062.7-.2222.7-.2231.2892-.147.5499-.3438.77-.582.335-.3242.708-.5942,1.039-.9209.0663-.0625.1375-.1191.213-.1699l.031-.022c.275-.1831.523-.0518.452.248-.0267.0942-.0639.1851-.111.271-.3225.5698-.7208,1.0933-1.184,1.5562-.0376.0386-.0376.1006,0,.1392.015.0156.0353.0254.057.0269.0289.0034.0577-.0068.078-.0278.029-.0332.105-.1128.205-.2271.2346-.251.4507-.5181.647-.7998.133-.1841.82-1.2368.325-1.4468v-.749h0c.006-.1348.012-.269.017-.3999-.0143-.2568.0428-.5127.165-.7388.0651-.1011.1519-.1865.254-.25.14-.082.243-.0151.25.1499.008.2261-.009.4541.01.6792.032.353.077.7051.129,1.0562.0372.2246.0522.4526.045.6802-.009.2744-.0743.5439-.192.792-.107.2212-.2.4492-.3.6758-.112.2661-.223.5322-.348.7891-.3254.6206-.8375,1.1235-1.464,1.438-.037.022-.159.0801-.159.0801-.4769.1699-.9316.3965-1.3541.6753l.004.0005ZM20.2083,30.2966c-.1841.127-.3777.2402-.579.3379l-1.423.6489h0l-.085.0391s-.132.043-.1-.0879c.0593-.3452.2496-.6538.531-.8618.0826-.0645.1699-.1226.261-.1738.059-.0449,1.84-.8418,1.84-.8418,0,0,.133-.04.1.0898-.0656.3428-.2608.647-.545.8496ZM23.4953,28.6858c-.1842.127-.3777.2402-.579.3379l-1.423.6479h0l-.084.0381s-.133.042-.1-.0879c.0582-.3452.2482-.6543.53-.8618.0825-.0649.1701-.123.262-.1738.058-.0449,1.839-.8418,1.839-.8418,0,0,.133-.04.1.0898-.0645.3438-.2599.6489-.5451.8511v.0005ZM28.0333,12.2048l-3.236,13.2349-10.087-8.1548v-1.8628h.028l.233.687c.0315.0776.1201.1152.1979.084.0007-.0005.0014-.0005.0021-.001.079-.0361.1149-.1289.081-.209l-.227-.4531,1.118.7808c.0743.0425.169.0171.2115-.0576.0001,0,.0003-.0005.0004-.0005.0421-.0767.0171-.1729-.057-.2192l-.557-.2798,1.289.4722c.1334.0356.2705-.0435.3063-.1768.0002-.0005.0004-.0015.0007-.0024.0375-.1353-.0397-.2759-.174-.3169l-.961-.2002.608.0439c.142,0,.2571-.1152.2571-.2568,0-.1421-.1151-.2573-.2571-.2573l-1.454.106,1.025-.377c.1146-.1206.1146-.3096,0-.4302l-1.847-1.1821c-.0527-.0537-.1248-.084-.2-.084h-.024c-.0753-.0005-.1475.0298-.2.084l-1.847,1.1821c-.1146.1206-.1146.3096,0,.4302l1.025.377-1.453-.106c-.142,0-.2571.1152-.2571.2573,0,.1416.1151.2568.2571.2568l.607-.0439-.961.2002c-.134.0415-.2109.1816-.174.3169.0349.1343.172.2148.3062.1797.0006,0,.0012-.0005.0018-.0005l1.289-.4722-.558.2798c-.0742.0464-.0988.1431-.056.2192.0416.0742.1356.1006.2097.0591.0004-.0005.0009-.0005.0013-.001l1.118-.7808-.227.4531c-.0333.0801.0024.1724.081.209.0781.0322.1675-.0049.1999-.083h.0001l.232-.687h.029v1.8628L3.8463,25.4397.6102,12.2048c-.0375-.1392-.015-.2876.062-.4092.0783-.1182.2043-.1963.345-.2139l12.465-1.814c.5543-.0625,1.1138-.0625,1.668,0l12.465,1.814c.1406.0176.2666.0957.345.2139.0806.1201.1071.2681.0731.4087v.0005Z"/>
          <path id="Trazado_466" data-name="Trazado 466" class="cls-1" d="M14.2363,31.3054c-.0053.0503.0313.0957.0818.1011s.0958-.0312.1011-.0815c.0007-.0068.0007-.0132,0-.0195.0228-1.0454-.0075-2.0913-.091-3.1338-.0833,1.0425-.114,2.0884-.092,3.1338Z"/>
        </g>
      </g>
    </g>
  </g>
</svg>