<?xml version="1.0" encoding="UTF-8"?>
<svg id="Capa_1" data-name="Capa 1" xmlns="http://www.w3.org/2000/svg" viewBox="0 0 90.2279 25.9179">
  <defs>
    <style>
      .cls-1 {
        fill: #f3e0be;
      }
    </style>
  </defs>
  <g id="Grupo_70" data-name="Grupo 70">
    <path id="Trazado_467" data-name="Trazado 467" class="cls-1" d="M54.5653,22.1206c-.8229.748-1.8961,1.1602-3.008,1.1558-1.1247.0073-2.2117-.4048-3.049-1.1558h-3.441c1.9905,3.5693,6.4977,4.8496,10.0671,2.8589,1.1999-.6689,2.1898-1.6592,2.8589-2.8589h-3.428Z"/>
    <path id="Trazado_468" data-name="Trazado 468" class="cls-1" d="M80.7263,5.8623c-.8235-.7476-1.897-1.1592-3.009-1.1548-1.1245-.0068-2.2113.4048-3.049,1.1548h-3.441c1.9905-3.5693,6.4977-4.8496,10.0671-2.8589,1.1999.6689,2.1898,1.6592,2.8589,2.8589h-3.427Z"/>
    <path id="Trazado_469" data-name="Trazado 469" class="cls-1" d="M5.8763,7.1792c1.5868-.1094,3.1501.4297,4.332,1.4941,1.09,1.2588,1.6286,2.9028,1.495,4.563v7.5659h-2.633v-7.4121c.0164-.7056-.1006-1.4077-.345-2.0698-.2018-.5454-.5733-1.0117-1.06-1.3301-.548-.3252-1.1783-.4849-1.815-.46-.6511-.0312-1.2965.1338-1.853.4731-.4764.3252-.8349.7959-1.022,1.3418-.2259.6577-.3343,1.3496-.32,2.0449v7.4121H.0223v-7.5659c-.1432-1.6729.4067-3.3311,1.521-4.5869,1.1924-1.0449,2.7509-1.5737,4.333-1.4702"/>
    <path id="Trazado_470" data-name="Trazado 470" class="cls-1" d="M31.4573,20.8022c-1.5869.1094-3.1503-.4302-4.332-1.4951-1.0901-1.2588-1.6288-2.9028-1.495-4.563v-7.5649h2.633v7.4121c-.0164.7056.1006,1.4077.345,2.0698.2021.5454.574,1.0117,1.061,1.3301.5477.3247,1.1777.4844,1.814.459.651.0312,1.2964-.1333,1.853-.4722.4764-.3252.835-.7959,1.022-1.3418.2263-.6572.3347-1.3496.32-2.0449v-7.4121h2.633v7.5649c.1429,1.6729-.4065,3.3311-1.52,4.5879-1.1928,1.0449-2.7516,1.5737-4.334,1.4702"/>
    <path id="Trazado_471" data-name="Trazado 471" class="cls-1" d="M50.6763,10.3203c-.4761-1.0122-1.2417-1.8608-2.2-2.438-2.2242-1.1743-4.8849-1.1743-7.109,0-.958.5786-1.7293,1.4209-2.222,2.4258-1.0251,2.3003-1.0293,4.9272-.012,7.231.4814,1.0059,1.2506,1.8457,2.21,2.4141,2.236,1.1431,4.885,1.1431,7.121,0,.9569-.5684,1.7228-1.4087,2.2-2.4141.5197-1.1221.7759-2.3486.749-3.585.0286-1.251-.2232-2.4927-.737-3.6338M48.4073,16.1875c-.252.6626-.6924,1.2373-1.267,1.6528-1.3753.8218-3.0907.8218-4.466,0-.5786-.4067-1.0206-.9785-1.268-1.6411-.2645-.7271-.3956-1.4956-.387-2.269-.0078-.7661.1234-1.5269.387-2.2461.2504-.6641.6915-1.2397,1.268-1.6538,1.3713-.8359,3.0947-.8359,4.466,0,.5693.4214,1.0084.9946,1.267,1.6538.2738.7168.4095,1.479.4,2.2461.0081.7705-.1276,1.5361-.4,2.2568"/>
    <path id="Trazado_472" data-name="Trazado 472" class="cls-1" d="M58.1333,20.8022c-1.587.1094-3.1503-.4302-4.332-1.4951-1.0901-1.2588-1.6288-2.9028-1.495-4.563v-7.5649h2.633v7.4121c-.0164.7056.1006,1.4077.345,2.0698.2017.5459.5737,1.0122,1.061,1.3301.5477.3247,1.1777.4844,1.814.459.651.0312,1.2964-.1333,1.853-.4722.4764-.3252.835-.7959,1.022-1.3418.2263-.6572.3347-1.3496.32-2.0449v-7.4121h2.633v7.5649c.1431,1.6733-.4067,3.3315-1.521,4.5879-1.1924,1.0449-2.7509,1.5737-4.333,1.4702"/>
    <path id="Trazado_473" data-name="Trazado 473" class="cls-1" d="M18.9703,20.8022c-1.2415.0435-2.4708-.2573-3.552-.8691-.9462-.5703-1.6992-1.4116-2.161-2.415-.5037-1.1201-.7523-2.3379-.728-3.5659-.0256-1.2417.2326-2.4731.755-3.6001.4796-1.0146,1.244-1.8677,2.2-2.4551,1.0547-.6226,2.2638-.9346,3.488-.8999.9359-.022,1.864.1753,2.71.5762.742.3652,1.3916.8936,1.9,1.5459.501.645.8778,1.3774,1.111,2.1602.1403.5752.2264,1.1621.257,1.7529.068.9165-.6198,1.7144-1.5363,1.7827-.0408.0029-.0818.0044-.1227.0044h-8.106c.0429.6519.2218,1.2876.525,1.8662.2903.5547.7276,1.0186,1.264,1.3408.614.3506,1.3133.5239,2.02.5.4358.002.8698-.0542,1.291-.166.4057-.1045.7874-.2866,1.124-.5361.1722-.1265.3228-.2798.446-.4541.2253-.3169.5901-.5054.979-.5049.6804.0015,1.2307.5542,1.2292,1.2349-.0007.2866-.1012.564-.2842.7842-.063.0742-.129.147-.2.2168-.5758.5908-1.286,1.0337-2.07,1.291-.8201.2739-1.6794.4121-2.544.4092M15.2343,12.7241h7.157c-.0065-.6211-.1644-1.231-.46-1.7769-.2815-.5098-.6963-.9331-1.2-1.2251-.5627-.312-1.1989-.4668-1.842-.4482-.684-.0254-1.3613.1426-1.954.4849-.5045.3086-.9185.7451-1.2,1.2651-.2838.5254-.4542,1.1045-.5,1.7002"/>
    <path id="Trazado_474" data-name="Trazado 474" class="cls-1" d="M84.3763,7.1792c1.5868-.1094,3.15.4297,4.332,1.4941,1.0918,1.2583,1.6323,2.9023,1.5,4.563v7.5659h-2.632v-7.4121c.0165-.7056-.1006-1.4077-.345-2.0698-.2025-.5454-.5743-1.0117-1.061-1.3301-.5476-.3252-1.1776-.4849-1.814-.46-.6511-.0312-1.2966.1338-1.853.4731-.4766.3252-.8352.7959-1.022,1.3418-.2263.6572-.3347,1.3496-.32,2.0449v7.4121h-2.635v-7.5659c-.143-1.6729.4064-3.3306,1.52-4.5869,1.1928-1.0449,2.7516-1.5737,4.334-1.4702"/>
    <path id="Trazado_475" data-name="Trazado 475" class="cls-1" d="M70.7873,20.8022c1.2415.0435,2.4708-.2573,3.552-.8691.9465-.5698,1.6996-1.4111,2.161-2.415.5037-1.1201.7523-2.3379.728-3.5659.0254-1.2417-.2328-2.4731-.755-3.6001-.4793-1.0142-1.2438-1.8672-2.2-2.4541-1.0543-.6235-2.2637-.9355-3.488-.8999-.9358-.022-1.8638.1748-2.71.5752-.7421.3652-1.3917.8945-1.9,1.5469-.5017.6445-.8789,1.3765-1.112,2.1592-.1399.5752-.2256,1.1626-.256,1.7539-.0685.916.6184,1.7139,1.5342,1.7827.0412.0029.0825.0044.1237.0044h8.106c-.043.6514-.2218,1.2871-.525,1.8652-.29.5547-.7274,1.019-1.264,1.3418-.614.3506-1.3133.5239-2.02.5-.4357.002-.8698-.0532-1.291-.165-.4059-.1045-.7877-.2871-1.124-.5371-.1722-.126-.3228-.2788-.446-.4531-.2253-.3169-.5901-.5054-.979-.5049-.6799.001-1.2303.5527-1.2295,1.2324.0003.2871.101.5649.2845.7856.0627.0752.1293.1479.2.2178.5757.5913,1.2859,1.0342,2.07,1.291.8197.2739,1.6787.4121,2.543.4092M74.5213,12.7261h-7.157c.0065-.6211.1644-1.231.46-1.7769.2811-.5098.696-.9336,1.2-1.2251.5623-.312,1.1982-.4668,1.841-.4482.684-.0254,1.3613.1426,1.954.4849.5044.3086.9184.7451,1.2,1.2651.284.5254.4543,1.1045.5,1.7002"/>
    <g id="Grupo_69" data-name="Grupo 69">
      <g id="Grupo_68" data-name="Grupo 68">
        <path id="Trazado_476" data-name="Trazado 476" class="cls-1" d="M1.2933,4.5366V.0464h1.774c.1108.0005.2214.0088.331.0249.7679.1748,1.2486.9395,1.0736,1.707-.1217.5347-.5391.9521-1.0736,1.0737-.1096.0166-.2202.0249-.331.0249h-1.219v1.6592l-.555.0005ZM1.8483,2.3506h1.2c.0944.001.1886-.0083.281-.0278.4753-.165.7268-.6841.5618-1.1592-.0914-.2637-.2984-.4707-.5618-.562-.0924-.0195-.1866-.0288-.281-.0278h-1.2v1.7769Z"/>
        <path id="Trazado_477" data-name="Trazado 477" class="cls-1" d="M5.1303,4.5366V1.1694h.495v.5332c.0719-.1279.1696-.2397.287-.3281.2746-.2002.6213-.2749.954-.2051v.52c-.2631-.0713-.5442-.0249-.77.1279-.2973.2549-.45.6396-.408,1.0288v1.6899l-.558.0005Z"/>
        <path id="Trazado_478" data-name="Trazado 478" class="cls-1" d="M7.2083,2.8496c.0827-.8965.8765-1.5562,1.7729-1.4731.8964.0825,1.556.8765,1.4733,1.7729-.0775.8389-.7816,1.4805-1.6242,1.48-.8835.0176-1.6141-.6841-1.6319-1.5674-.0014-.0708.0019-.1421.0099-.2124ZM9.8654,2.8496c0-.7568-.346-1.2471-1.035-1.2471-.7,0-1.032.5112-1.032,1.2471,0,.7612.352,1.2539,1.032,1.2539.695,0,1.035-.5122,1.035-1.2539h0Z"/>
        <path id="Trazado_479" data-name="Trazado 479" class="cls-1" d="M11.9243,4.5366l-1.222-3.3672h.561l.945,2.6592.941-2.6592h.565l-1.223,3.3672h-.567Z"/>
        <path id="Trazado_480" data-name="Trazado 480" class="cls-1" d="M14.3363.5732v-.5732h.555v.5732h-.555ZM14.3363,4.5361V1.1689h.555v3.3672h-.555Z"/>
        <path id="Trazado_481" data-name="Trazado 481" class="cls-1" d="M15.8223,4.5366V1.1694h.5v.4331c.2673-.3462.6862-.5405,1.123-.521,1.085,0,1.34.9541,1.34,1.5942v1.8608h-.561v-1.687c0-.6328-.2-1.2412-.913-1.2412-.558,0-.926.374-.926,1.1538v1.7739l-.563.0005Z"/>
        <path id="Trazado_482" data-name="Trazado 482" class="cls-1" d="M19.3763,2.8525c-.0977-.8784.5349-1.6694,1.4132-1.7671.066-.0073.1324-.0107.1988-.0098.6465-.043,1.2386.3613,1.434.979l-.549.165c-.1314-.3774-.4915-.627-.891-.6172-.692,0-1.01.521-1.017,1.25.007.752.347,1.251,1.017,1.251.3924.0239.7522-.2178.879-.5898l.561.147c-.2083.6094-.797,1.0059-1.44.9692-.8797.0132-1.6034-.6895-1.6165-1.5693-.001-.0693.0025-.1387.0106-.208Z"/>
        <path id="Trazado_483" data-name="Trazado 483" class="cls-1" d="M23.0284.5732v-.5732h.555v.5732h-.555ZM23.0284,4.5361V1.1689h.555v3.3672h-.555Z"/>
        <path id="Trazado_484" data-name="Trazado 484" class="cls-1" d="M24.3303,3.6265c-.0065-.4888.3449-.9087.827-.9888.4991-.1113,1.0038-.1953,1.512-.252-.016-.5371-.247-.792-.83-.792-.3901-.0356-.7502.2119-.857.5889l-.527-.1592c.1666-.6157.757-1.0181,1.391-.9482.5152-.061,1.015.2002,1.259.6582.0861.23.1233.4751.109.7202v2.083h-.492v-.5239c-.2745.415-.7506.6504-1.247.6172-.5572.0708-1.0662-.3237-1.1369-.8809-.0052-.0405-.0079-.0815-.0081-.1226ZM26.6063,3.3896c.0396-.1738.0588-.3516.057-.5298-.4231.042-.843.1118-1.257.209-.277.0869-.524.2402-.524.5542,0,.2778.2.543.677.543.4929.0356.9377-.2944,1.047-.7764Z"/>
        <path id="Trazado_485" data-name="Trazado 485" class="cls-1" d="M29.0833,2.8496c-.1104-.8628.4995-1.6519,1.3623-1.7622.0477-.0059.0956-.0098.1437-.0117.373-.0132.734.1323.994.3999V.0474h.559v4.4902h-.5v-.3799c-.2594.312-.6484.4868-1.054.4731-.8714-.0337-1.5506-.7671-1.517-1.6387.0018-.0479.0059-.0952.012-.1426ZM31.6463,2.8496c0-.7451-.312-1.2661-.97-1.2661-.686,0-1,.5552-1,1.2661s.325,1.272.989,1.272.981-.5332.981-1.272Z"/>
        <path id="Trazado_486" data-name="Trazado 486" class="cls-1" d="M32.8263,2.8745c-.1071-.8804.5197-1.6812,1.4002-1.7881.0732-.0093.147-.0132.2208-.0117,1.014,0,1.606.7358,1.556,1.9331h-2.581c.043.7002.4,1.1001,1.025,1.1001.4129.0176.7952-.2168.967-.5928l.533.1841c-.2556.5825-.8389.9526-1.475.9351-.886.0269-1.626-.6699-1.6528-1.5557-.0021-.0684.0002-.1362.0068-.2041ZM33.4313,2.5625h1.995c-.068-.6611-.389-.9878-.96-.9878-.5427-.0283-1.0055.3892-1.0337.9316-.001.0186-.0014.0376-.0013.0562Z"/>
        <path id="Trazado_487" data-name="Trazado 487" class="cls-1" d="M36.7563,4.5366V.0464h.555v4.4902h-.555Z"/>
      </g>
    </g>
  </g>
</svg>