<?xml version="1.0" encoding="UTF-8"?>
<svg id="Capa_1" data-name="Capa 1" xmlns="http://www.w3.org/2000/svg" viewBox="0 0 126.6831 10.8189">
  <defs>
    <style>
      .cls-1 {
        fill: #f3e0be;
      }

      .cls-2 {
        isolation: isolate;
      }
    </style>
  </defs>
  <g id="Ministerio_de_Salud" data-name="Ministerio de Salud">
    <g class="cls-2">
      <path class="cls-1" d="M0,10.6021V.21h1.1694l3.9263,8.2788L9.0005.21h1.1836v10.3862h-1.2197V3.0318l-3.5293,7.5703h-.686L1.2197,3.0318v7.5703H0Z"/>
      <path class="cls-1" d="M12.3457,1.4297V.1016h1.2847v1.3281h-1.2847ZM12.3457,10.6021V2.8072h1.2847v7.7949h-1.2847Z"/>
      <path class="cls-1" d="M15.7876,10.6021V2.8072h1.1548v1.0039c.5771-.7715,1.4722-1.2051,2.5981-1.2051,2.5117,0,3.1035,2.209,3.1035,3.6875v4.3086h-1.2993v-3.9043c0-1.4648-.4692-2.873-2.1147-2.873-1.292,0-2.1436.8672-2.1436,2.6719v4.1055h-1.2988Z"/>
      <path class="cls-1" d="M24.6626,1.4297V.1016h1.2847v1.3281h-1.2847ZM24.6626,10.6021V2.8072h1.2847v7.7949h-1.2847Z"/>
      <path class="cls-1" d="M27.6782,8.4947l1.314-.209c.209.8516,1.0176,1.3789,2.1436,1.3789,1.061,0,1.7104-.4688,1.7104-1.2344,0-.6562-.2959-.8438-2.2012-1.3574-2.0645-.5488-2.7212-1.082-2.7212-2.2012,0-1.3711,1.1982-2.2812,2.9951-2.2812,1.7754,0,3.0605.9102,3.2261,2.2812l-1.3135.2383c-.1299-.8301-.8516-1.3418-1.9126-1.3711-1.0103-.0293-1.7031.4043-1.7031,1.0684,0,.5703.397.8145,2.23,1.2773,2.0571.5273,2.7285,1.1035,2.7285,2.3086,0,1.5098-1.1768,2.418-3.1182,2.418-1.8618,0-3.1108-.8516-3.3779-2.3164Z"/>
      <path class="cls-1" d="M40.1187,10.6021c-1.3926.2812-2.8291.123-3.3701-.9375-.3105-.6074-.2671-1.1992-.2671-2.0059v-3.7891h-1.5806v-1.0625h1.5806V.6426h1.2847v2.1646h2.3525v1.0625h-2.3525v3.7305c0,.6426-.0288,1.0762.1587,1.4004.3462.6211,1.126.6641,2.1938.498v1.1035Z"/>
      <path class="cls-1" d="M40.9478,6.7564c0-2.5547,1.4863-4.166,3.7529-4.166,2.3457,0,3.7168,1.7051,3.6016,4.4766h-5.9761c.1011,1.6152.938,2.5332,2.3745,2.5332,1.0249,0,1.8042-.4844,2.2373-1.373l1.2344.4277c-.6138,1.377-1.9058,2.1641-3.4141,2.1641-2.3022,0-3.8105-1.623-3.8105-4.0625ZM42.3477,6.0337h4.6191c-.1587-1.5293-.9023-2.2871-2.2231-2.2871-1.3926,0-2.2085.8086-2.396,2.2871Z"/>
      <path class="cls-1" d="M49.9019,10.6021V2.8072h1.1479v1.2344c.1729-.3027.4038-.5703.6636-.7578.5991-.4824,1.5161-.627,2.209-.4766v1.2051c-.5415-.1367-1.2417-.0996-1.7827.2969-.7578.541-.9458,1.457-.9458,2.3809v3.9121h-1.292Z"/>
      <path class="cls-1" d="M55.436,1.4297V.1016h1.2847v1.3281h-1.2847ZM55.436,10.6021V2.8072h1.2847v7.7949h-1.2847Z"/>
      <path class="cls-1" d="M58.4517,6.6978c0-2.4473,1.4653-4.1074,3.7534-4.1074,2.3384,0,3.7603,1.6973,3.7603,4.1074,0,2.4473-1.4434,4.1211-3.7603,4.1211-2.3315,0-3.7534-1.7031-3.7534-4.1211ZM64.6011,6.6978c0-1.7539-.8013-2.8867-2.396-2.8867-1.6313,0-2.3892,1.1836-2.3892,2.8867,0,1.7617.8154,2.9023,2.3892,2.9023,1.6094,0,2.396-1.1836,2.396-2.9023Z"/>
      <path class="cls-1" d="M70.0034,6.6978c0-2.3379,1.3208-4.1074,3.4863-4.1074.9741,0,1.7466.3398,2.3022.9238V.21h1.292v10.3921h-1.1475v-.8809c-.5703.6855-1.3857,1.0977-2.4395,1.0977-2.1797,0-3.4937-1.7832-3.4937-4.1211ZM75.9365,6.6978c0-1.7246-.7217-2.9297-2.2446-2.9297-1.5879,0-2.3242,1.2852-2.3242,2.9297,0,1.6602.7505,2.9453,2.2881,2.9453,1.5732,0,2.2808-1.2344,2.2808-2.9453Z"/>
      <path class="cls-1" d="M78.6694,6.7564c0-2.5547,1.4868-4.166,3.7534-4.166,2.3457,0,3.7168,1.7051,3.6016,4.4766h-5.9761c.1011,1.6152.938,2.5332,2.3745,2.5332,1.0249,0,1.8042-.4844,2.2373-1.373l1.2344.4277c-.6138,1.377-1.9058,2.1641-3.4141,2.1641-2.3022,0-3.811-1.623-3.811-4.0625ZM80.0698,6.0337h4.6191c-.1587-1.5293-.9023-2.2871-2.2231-2.2871-1.3926,0-2.2085.8086-2.396,2.2871Z"/>
      <path class="cls-1" d="M90.0054,7.7232l1.3276-.209c.332,1.3125,1.48,2.0859,2.9307,2.0859,1.3926,0,2.4971-.6934,2.4971-1.8262,0-.9102-.7075-1.2988-1.4507-1.5234l-2.6489-.7871c-1.1548-.3379-2.252-1.0098-2.252-2.5469C90.4092,1.0752,91.9756-.0068,94.0469,0c2.0933.0146,3.5942,1.1475,3.9771,3.0396l-1.3643.2383c-.2163-1.2637-1.3062-2.0435-2.627-2.0581-1.2778-.0146-2.2666.6792-2.2666,1.6382,0,.9609.96,1.293,1.7324,1.5078l1.9775.5703c.9023.2539,2.6128.7656,2.6128,2.7656,0,2.0137-1.7324,3.1172-3.8901,3.1172-2.2085,0-3.8472-1.1836-4.1934-3.0957Z"/>
      <path class="cls-1" d="M99.1685,8.4947c0-1.2266.729-1.9414,1.9131-2.2871.9741-.2598,2.3452-.4258,3.5-.5859-.0356-1.2402-.5698-1.832-1.9194-1.832-.9458,0-1.7036.4121-1.9849,1.3633l-1.2197-.3672c.3682-1.3652,1.458-2.1953,3.2188-2.1953,1.4077,0,2.4683.5059,2.916,1.5234.2163.4844.2524,1.0547.2524,1.668v4.8203h-1.1401v-1.2129c-.6206.9531-1.5879,1.4297-2.8872,1.4297-1.7466,0-2.6489-1.0684-2.6489-2.3242ZM104.4375,7.9458c.1084-.375.1226-.873.1299-1.2266-1.0972.1445-2.1509.2676-2.9087.4844-.6426.2012-1.2124.5547-1.2124,1.2852,0,.6406.4546,1.2559,1.5659,1.2559,1.3857,0,2.2373-.8301,2.4253-1.7988Z"/>
      <path class="cls-1" d="M107.8633,10.6021V.21h1.2847v10.3921h-1.2847Z"/>
      <path class="cls-1" d="M111.168,7.1158V2.8072h1.2988v3.9043c0,1.4668.4692,2.873,2.1147,2.873,1.292,0,2.1436-.8652,2.1436-2.6699V2.8072h1.292v7.7949h-1.1475v-1.002c-.5776.7715-1.4722,1.2051-2.5981,1.2051-2.5117,0-3.1035-2.209-3.1035-3.6895Z"/>
      <path class="cls-1" d="M119.603,6.6978c0-2.3379,1.3203-4.1074,3.4858-4.1074.9741,0,1.7466.3398,2.3022.9238V.21h1.292v10.3921h-1.1475v-.8809c-.5703.6855-1.3857,1.0977-2.4395,1.0977-2.1797,0-3.4932-1.7832-3.4932-4.1211ZM125.5356,6.6978c0-1.7246-.7217-2.9297-2.2446-2.9297-1.5879,0-2.3242,1.2852-2.3242,2.9297,0,1.6602.7505,2.9453,2.2881,2.9453,1.5732,0,2.2808-1.2344,2.2808-2.9453Z"/>
    </g>
  </g>
</svg>