<?xml version="1.0" encoding="UTF-8"?>
<svg id="Capa_1" data-name="Capa 1" xmlns="http://www.w3.org/2000/svg" xmlns:xlink="http://www.w3.org/1999/xlink" viewBox="0 0 143.536 19.23">
  <defs>
    <style>
      .cls-1 {
        fill: #fcf2dc;
      }

      .cls-2 {
        fill: none;
      }

      .cls-3 {
        clip-path: url(#clippath);
      }
    </style>
    <clipPath id="clippath">
      <rect class="cls-2" width="143.536" height="19.23"/>
    </clipPath>
  </defs>
  <g id="Marca_andes" data-name="Marca andes">
    <g class="cls-3">
      <g id="Grupo_101" data-name="Grupo 101">
        <path id="Trazado_692" data-name="Trazado 692" class="cls-1" d="M59.754,13.836c-.1347.002-.2672-.0345-.382-.105-.1247-.0733-.2193-.1885-.267-.325l-1.345-3.133-2.339-5.407-3.721,8.564c-.0946.2508-.3381.4139-.606.406-.1682.0054-.3323-.0524-.46-.162-.1192-.0998-.1976-.2401-.22-.394-.0205-.1064-.0097-.2165.031-.317l4.348-10.163c.0486-.14.1468-.2574.276-.33.1079-.0539.2274-.0807.348-.078.28-.0137.5377.1523.641.413l4.336,10.136c.0299.0827.0448.1701.044.258.0045.189-.0803.3691-.229.486-.13.1006-.2906.1536-.455.15"/>
        <path id="Trazado_693" data-name="Trazado 693" class="cls-1" d="M93.522,13.985c-.855,0-.92-.523-.92-.683,0-.331.24-.684.917-.684.0434-.0003.0868.0018.13.006h4.013c1.0927.0715,2.154-.3824,2.857-1.222.6773-.9432,1.0147-2.0882.957-3.248.0101-.7737-.1316-1.5418-.417-2.261-.2545-.6083-.6908-1.1231-1.249-1.474-.6487-.3796-1.3993-.5481-2.148-.482h-3.984c-.0233.0012-.0467.0012-.07,0-.169.0018-.3374-.0207-.5-.067-.2893-.0555-.5005-.3055-.507-.6,0-.162.071-.691.987-.691h4.234c.9858-.059,1.9653.1932,2.8.721.752.5081,1.3382,1.2257,1.686,2.064.3633.8837.5449,1.8316.534,2.787.0165.9759-.1648,1.945-.533,2.849-.3411.8612-.9247,1.6049-1.68,2.141-.8274.5605-1.8067.854-2.806.841h-4.301"/>
        <path id="Trazado_694" data-name="Trazado 694" class="cls-1" d="M139.643,13.989c-.7604.0154-1.5157-.1273-2.218-.419-.688-.3184-1.3162-.7527-1.857-1.284-.1308-.1246-.2034-.2984-.2-.479.0177-.379.321-.6823.7-.7.203.0027.395.0927.527.247.3791.4283.8488.7668,1.375.991.5306.2257,1.1014.3413,1.678.34.6541.0274,1.3006-.149,1.85-.505.4188-.2616.6688-.7244.658-1.218.009-.3585-.1101-.7085-.336-.987-.2425-.2831-.542-.5117-.879-.671-.5107-.235-1.0338-.4419-1.567-.62-.6037-.2081-1.1956-.4492-1.773-.722-.4632-.2288-.8679-.5606-1.183-.97-.3609-.4913-.5432-1.091-.517-1.7-.0031-.5605.172-1.1075.5-1.562.3537-.4809.8328-.8552,1.385-1.082.636-.2639,1.3196-.3936,2.008-.381.6595-.0022,1.3137.1172,1.93.352.5779.2094,1.0926.5633,1.495,1.028.1383.1497.2231.341.241.544-.0018.1915-.0923.3714-.245.487-.1352.1154-.3073.1785-.485.178-.1797.0041-.3519-.0726-.469-.209-.2834-.3387-.641-.6077-1.045-.786-.4477-.1976-.9326-.2968-1.422-.291-.6505-.0253-1.2935.1462-1.845.492-.4249.2554-.6785.7205-.663,1.216-.0112.326.0997.6445.311.893.2435.2777.5426.5012.878.656.4718.2176.9548.4098,1.447.576.6237.2027,1.2345.4432,1.829.72.4921.2431.92.5987,1.249,1.038.3775.5346.567,1.1792.539,1.833-.0015.5459-.1766,1.0772-.5,1.517-.3561.4827-.837.8592-1.391,1.089-.6322.2678-1.3135.4003-2,.389"/>
        <path id="Trazado_695" data-name="Trazado 695" class="cls-1" d="M80.295,13.917c-.2072.0029-.4037-.0915-.531-.255l-6.688-8.683v8.331c.0007.1722-.076.3356-.209.445-.2647.2209-.6508.2163-.91-.011-.1212-.1116-.1895-.2693-.188-.434V3.086c-.0084-.1875.0684-.3687.209-.493.1182-.1041.2705-.1614.428-.161.1912-.0022.3739.0792.5.223l6.768,8.763V3.07c-.0009-.1743.0717-.341.2-.459.1232-.1169.2872-.1811.457-.179.3483-.0122.6405.2603.6527.6086.0003.0098.0005.0196.0003.0294v10.162c.0088.1956-.0705.3849-.216.516-.1303.1127-.2978.1729-.47.169"/>
        <path id="Trazado_696" data-name="Trazado 696" class="cls-1" d="M114.936,3.936c-.38,0-.688-.308-.688-.688s.308-.688.688-.688h8.855c.38-.0002.6881.3077.6883.6877.0002.38-.3077.6881-.6877.6883h-8.8556Z"/>
        <path id="Trazado_697" data-name="Trazado 697" class="cls-1" d="M114.936,8.981c-.38.0002-.6881-.3077-.6883-.6877-.0002-.38.3077-.6881.6877-.6883h8.8556c.38-.0002.6881.3077.6883.6877.0002.38-.3077.6881-.6877.6883h-8.8556Z"/>
        <path id="Trazado_698" data-name="Trazado 698" class="cls-1" d="M114.936,13.987c-.3802.0145-.7002-.282-.7147-.6623s.282-.7003.6623-.7147c.0175-.0007.035-.0007.0525,0h8.855c.3802-.0145.7002.282.7147.6623s-.282.7003-.6623.7147c-.0175.0007-.035.0007-.0525,0h-8.855Z"/>
        <path id="Trazado_699" data-name="Trazado 699" class="cls-1" d="M24.844,18.419c.032-.029.062-.061.094-.092l.01-.011c.023-.023.047-.047.07-.072.3592-.3942.6639-.8348.906-1.31l.117-.217-.015-.02c.239-.474.462-.981.682-1.485.719-1.642,1.461-3.339,2.576-3.339.5367-.0005,1.05.2193,1.42.608-.4765.7138-.8625,1.484-1.149,2.293-.753,1.873-1.469,3.656-4.305,3.657-.131,0-.266,0-.406-.012M35.944,15.746c-1.424-.142-2.408-1.306-3.36-2.434-.256-.3-.516-.608-.784-.893l.012-.014-.209-.188c-.2396-.2432-.5014-.4635-.782-.658-.0147-.0116-.03-.0223-.046-.032-.014-.009-.027-.02-.041-.03,2.522-.392,3.176.6,3.973,1.811.5653,1.0529,1.4639,1.8885,2.555,2.376-.3258.0485-.6546.0735-.984.075-.1115.0014-.223-.003-.334-.013M23.374,18.184c-1.174-.155-2.845-5.315-4.065-9.082-.726-2.243-1.413-4.365-2.086-5.947.079-.2.159-.385.238-.557.143-.3.284-.559.421-.782.1698-.2909.408-.536.694-.714.534.3,1.149,1.53,1.77,3.1.5,1.312,1.027,2.882,1.574,4.525.659,1.98,1.329,4,2,5.636,0,.015.011.028.017.043.053.128.1.254.158.377.024.057.049.112.073.168s.053.118.079.178c.044.1.087.194.132.288.02.044.041.088.061.13.043.09.087.179.13.267l.083.166.088.167c.044.079.085.155.128.231.017.03.033.059.05.087.053.092.108.181.161.265l.009.015c-.2474.5205-.6219.9703-1.089,1.308-.152.0886-.3241.1368-.5.14-.0402,0-.0803-.003-.12-.009M10.483,13.359c-.1581-.17-.3066-.3486-.445-.535-.124-.172-.246-.356-.363-.54.974-1.923,1.783-3.926,2.5-5.7,1.062-2.627,1.98-4.9,2.82-5.344.006-.0028.0117-.0061.017-.01.8027-.4049,1.716-.5356,2.6-.372-.013.014-.026.033-.04.049-.3441.409-.6258.8666-.836,1.358-.6725,1.491-1.266,3.0165-1.778,4.57-1.032,2.94-2.448,6.965-3.658,6.965-.3194-.0342-.6125-.1926-.816-.441M14.611.541c-1.091.591-1.967,2.753-3.176,5.744-.662,1.64-1.407,3.477-2.281,5.253-.79-1.182-1.55-2.245-2.476-2.245-.716,0-1.456.771-2.482,1.837-1.1428,1.3771-2.5755,2.4848-4.196,3.244l.266.752c1.7397-.7948,3.2779-1.9717,4.5-3.443.754-.783,1.531-1.591,1.907-1.591.553,0,1.33,1.165,1.953,2.1.275.414.547.82.82,1.177.1588.2167.3351.42.527.608.2867.332.6852.5473,1.12.605.0663.0095.1331.0145.2.015,1.777,0,3.059-3.643,4.416-7.5.323-.919.691-1.961,1.067-2.918.568,1.454,1.154,3.266,1.77,5.167,1.887,5.828,3.148,9.388,4.7,9.623v.039c.6665.1398,1.3451.2138,2.026.221,3.348,0,4.23-2.191,5.021-4.159.2558-.7134.5913-1.3958,1-2.034.225.244.451.512.686.789,1.006,1.19,2.146,2.539,3.883,2.712.1425.0141.2858.0205.429.019.9669-.0151,1.9252-.1838,2.839-.5l1.793-.6-1.881-.18c-1.5692-.0766-2.9726-1.0007-3.663-2.412-.985-1.492-2-3.035-6.382-1.792v.02c-1.452.212-2.248,2.032-3.021,3.8-.148.342-.3.683-.453,1.012-.2971-.5518-.5642-1.1193-.8-1.7-.649-1.566-1.3-3.531-1.934-5.455-.626-1.89-1.171-3.5-1.681-4.8-.836-2.182-1.536-3.449-2.308-3.649-.6421-.195-1.309-.2961-1.98-.3-.7685-.0192-1.5281.1676-2.2.541"/>
      </g>
    </g>
  </g>
</svg>