<?xml version="1.0" encoding="UTF-8"?>
<svg id="Capa_1" data-name="Capa 1" xmlns="http://www.w3.org/2000/svg" xmlns:xlink="http://www.w3.org/1999/xlink" viewBox="0 0 143.536 19.23">
  <defs>
    <style>
      .cls-1 {
        fill: url(#Degradado_sin_nombre_4);
      }

      .cls-2 {
        fill: #062837;
      }
    </style>
    <linearGradient id="Degradado_sin_nombre_4" data-name="Degradado sin nombre 4" x1="0" y1="9.6309" x2="40.9897" y2="9.6309" gradientUnits="userSpaceOnUse">
      <stop offset=".2649" stop-color="#009dc9"/>
      <stop offset=".6243" stop-color="#853188"/>
      <stop offset="1" stop-color="#f4a47e"/>
    </linearGradient>
  </defs>
  <g>
    <path class="cls-2" d="M59.5363,15.3841c-.1411,0-.2701-.0354-.3834-.1054-.1255-.0749-.2183-.1878-.2666-.3256l-1.3491-3.1417-2.3452-5.4207-3.7289,8.5858c-.1042.2578-.3265.4077-.6083.4077-.1827,0-.338-.0544-.4614-.1617-.1213-.1041-.198-.2412-.2204-.3954-.0223-.0703-.0126-.1907.0317-.3178l4.3575-10.1889c.0603-.1529.1541-.2656.2772-.3309.0992-.0521.2162-.0786.348-.0786.3017,0,.5364.1512.6439.4151l4.3465,10.1613c.0315.0893.0439.1663.0439.2591,0,.1977-.0815.3707-.2292.4868-.1252.1001-.279.151-.4562.151Z"/>
    <path class="cls-2" d="M93.3926,15.5329c-.8568,0-.9234-.5246-.9234-.6852,0-.3313.2416-.6856.9198-.6856.0791,0,.1307.0054.1307.0054l4.0231-.0016c1.2596,0,2.2234-.4123,2.8645-1.2252.6371-.8086.9602-1.9042.9602-3.2562,0-.8284-.1408-1.5913-.4184-2.2677-.244-.5941-.6183-1.0351-1.2514-1.4748-.4885-.3386-1.133-.4831-2.1548-.4831h-3.9947c-.0024.0003-.0305.0014-.0692.0014-.1301,0-.3227-.0115-.501-.0666-.4592-.1418-.5088-.4712-.5088-.6062,0-.1625.0715-.6921.9905-.6921l4.2449.0002c1.2079,0,2.1005.2294,2.8087.7219.7833.546,1.3359,1.2231,1.6895,2.0704.3605.8645.5359,1.7784.5359,2.7938,0,1.0644-.1753,1.9995-.5362,2.8586-.3852.9175-.9677,1.6599-1.6848,2.147-.8216.5587-1.768.8422-2.8131.8422h-4.1717c-.0504.0018-.0919.0035-.1403.0035Z"/>
    <path class="cls-2" d="M139.6334,15.5375c-.8419,0-1.5905-.1417-2.2251-.4209-.6268-.2763-1.2528-.7092-1.8608-1.2869-.134-.1268-.2051-.2931-.2051-.4811,0-.176.0719-.338.2135-.4812.14-.1424.3093-.218.4887-.218.1966,0,.3739.0834.5273.2478.3887.4353.8519.7687,1.3783.9929.5303.2264,1.0967.3409,1.6833.3409.7531,0,1.3769-.1698,1.8541-.505.4509-.317.6609-.7054.6609-1.2222-.0088-.4074-.1197-.7323-.338-.9892-.2373-.2792-.5337-.5054-.8805-.6726-.381-.1832-.91-.3925-1.5717-.622-.7566-.2707-1.3541-.5141-1.7777-.7232-.4602-.2269-.8593-.5541-1.1862-.9725-.3439-.4385-.5185-1.0115-.5185-1.703,0-.5721.1687-1.0994.501-1.567.3265-.4597.7936-.8246,1.3885-1.0842.5791-.2534,1.2565-.3821,2.0134-.3821.6746,0,1.3255.1188,1.9346.3531.6246.2408,1.1291.5874,1.4993,1.03.1714.2269.2424.3878.2424.5445,0,.1304-.0429.3212-.2467.4898-.1442.1186-.3082.1787-.4873.1787-.1873,0-.3498-.0726-.4699-.2096-.2726-.3325-.6236-.5966-1.0474-.7889-.4264-.1934-.9058-.2914-1.425-.2914-.7453,0-1.3678.1658-1.8506.4931-.4532.3069-.6644.6941-.6644,1.2188,0,.3582.1019.6512.3119.8955.2314.2695.5279.4907.8803.6576.3832.1827.8716.3767,1.4517.5768.766.2601,1.3829.5033,1.8327.7227.4884.2376.9108.5867,1.2555,1.0378.3583.4701.5401,1.0884.5401,1.8381,0,.5415-.1686,1.0532-.5009,1.521-.3262.4594-.7953.8266-1.3944,1.0913-.5871.2591-1.2625.3906-2.0073.3906Z"/>
    <path class="cls-2" d="M80.1312,15.465c-.2137,0-.4026-.0909-.5323-.2555l-6.7059-8.7063v8.3531c0,.1738-.0721.3286-.2088.4468-.1237.1075-.2739.162-.4462.162-.1898,0-.347-.0585-.4671-.1735-.1228-.1165-.1881-.2671-.1881-.4353V4.6056c0-.2586.1136-.4112.2089-.4936.1223-.1059.271-.1617.4301-.1617.1963,0,.3695.0769.5011.2224l6.7857,8.7879V4.5901c0-.1781.0683-.3372.1972-.4599.1242-.1178.2825-.1799.4579-.1799.2424,0,.3934.1038.4773.1912.1167.122.1781.277.1781.4486v10.1886c0,.2709-.1176.4302-.2164.5163-.1294.1126-.2879.17-.4714.17Z"/>
    <path class="cls-2" d="M114.8613,5.4589c-.3804,0-.6901-.3096-.6901-.6901s.3097-.69.6901-.69h8.8793c.3806,0,.6903.3096.6903.69s-.3097.6901-.6903.6901h-8.8793Z"/>
    <path class="cls-2" d="M114.8613,15.5356c-.3804,0-.6901-.3097-.6901-.6904,0-.3803.3097-.69.6901-.69h8.8793c.3806,0,.6903.3097.6903.69,0,.3807-.3097.6904-.6903.6904h-8.8793Z"/>
    <rect class="cls-2" x="118.3757" y="5.4726" width="1.3801" height="8.6795" rx=".4844" ry=".4844" transform="translate(128.8782 -109.2534) rotate(90)"/>
  </g>
  <path class="cls-1" d="M39.1048,15.3053c-2.2159-.2121-2.9219-1.2828-3.6692-2.4162-.9857-1.4947-2.005-3.0405-6.3931-1.7963l.0038.0203c-1.4552.2122-2.2531,2.0357-3.0263,3.8032-.1491.3408-.2996.6837-.4544,1.0134-.2648-.4769-.533-1.0549-.8032-1.7034-.6501-1.5684-1.3005-3.5359-1.9374-5.4628-.6258-1.8932-1.1724-3.5085-1.6833-4.8081-.8355-2.1848-1.5369-3.454-2.3142-3.6567-.1723-.0561-2.4776-.7749-4.1914.242-1.0936.5923-1.9698,2.7588-3.1809,5.7538-.6645,1.643-1.4101,3.4829-2.2862,5.262-.7908-1.1841-1.552-2.249-2.4797-2.249-.7166,0-1.4586.7718-2.4857,1.8399-1.1421,1.1879-2.5634,2.6662-4.2036,3.2494l.2679.7534c1.818-.6465,3.3119-2.2002,4.5122-3.4485.7538-.784,1.533-1.5946,1.9092-1.5946.555,0,1.3322,1.1681,1.9566,2.1065.2765.4153.5477.8216.8218,1.1797.1671.2242.3416.4318.5265.6102.3558.3525.7248.5811,1.1224.6048.0662.0087.1334.0139.2021.0139,1.7791,0,3.063-3.6484,4.4222-7.5111.3242-.9214.6918-1.9655,1.0691-2.9233.5693,1.456,1.1572,3.2709,1.7736,5.1745,1.8899,5.837,3.1528,9.4049,4.7076,9.6403l-.005.0389c.7633.1514,1.435.2203,2.0296.2203,3.3542,0,4.2373-2.1945,5.0299-4.1653.3013-.749.5905-1.4614.9968-2.0384.2252.2448.4523.5134.6873.7914,1.0074,1.1919,2.1491,2.5427,3.8893,2.7167.0178.0022.1684.0196.4303.0196.5394,0,1.5501-.0734,2.8431-.5031l1.7971-.597-1.885-.1803ZM14.9867,6.8457c-1.0361,2.9445-2.4551,6.977-3.6679,6.977-.2793,0-.5537-.1756-.8179-.4422-.1453-.1531-.2952-.3367-.4454-.5364-.125-.1724-.2468-.3557-.3643-.54.9756-1.9269,1.7867-3.9327,2.5053-5.7096,1.0641-2.6315,1.9832-4.904,2.8248-5.3527.0057-.0031.0113-.0062.0169-.0096.821-.4904,1.8643-.4754,2.6066-.3731-.0133.0151-.0267.033-.0401.0486-.294.3282-.5693.7762-.838,1.3604-.5474,1.1201-1.1105,2.6752-1.78,4.5776ZM19.3445,9.1159c-.7273-2.246-1.4155-4.3715-2.089-5.956.0793-.2007.1586-.3865.2379-.5588.1428-.2948.2842-.5599.4221-.7821.2286-.3511.4592-.5886.6945-.7153.535.3014,1.1518,1.5334,1.7726,3.1055.5061,1.3138,1.0292,2.8863,1.5767,4.5328.6591,1.9824,1.3319,4.0048,2.0059,5.6454.0058.0142.0116.0281.0174.0424.0529.1283.1059.255.1588.3784.0242.0565.0484.1116.0727.167.0265.0605.0529.1199.0793.179.0438.0981.0877.1942.1317.2884.0207.0442.0413.0879.0618.1312.0432.0906.0865.1794.1297.2661.0279.0561.0561.1114.0841.1657.0292.0568.0585.113.0879.1678.0427.0798.0854.157.128.2321.0165.029.033.0586.0494.087.0538.0926.1075.1806.1613.2654.003.0049.0062.0105.0093.0153-.3311.5893-.6904,1.0674-1.1013,1.3083-.2068.1154-.4127.1599-.6189.1323-1.1769-.1556-2.8503-5.3242-4.0722-9.098ZM29.604,14.7982c-.7889,1.9614-1.5374,3.8268-4.7184,3.6504.0317-.0293.0624-.0609.0934-.092.0036-.0035.0071-.007.0106-.0105.0235-.0239.047-.0481.0701-.0729.4512-.4685.7575-1.0337.9076-1.3128l.1169-.2169-.0142-.0201c.2391-.4744.4619-.9824.6824-1.4866.7193-1.6447,1.4632-3.345,2.58-3.345.6462,0,1.0079.2472,1.4226.6099-.4997.6768-.83,1.4983-1.1511,2.2964ZM36.0075,15.7715c-1.4268-.1427-2.4129-1.3097-3.3667-2.4381-.2568-.3038-.5163-.609-.7851-.894l.0129-.0143-.2104-.1887c-.2493-.2486-.5085-.4737-.7829-.6593-.015-.0105-.03-.021-.0452-.0313-.0142-.0093-.0278-.0201-.0421-.0291,2.5256-.3933,3.1814.6016,3.9802,1.8129.5778.8762,1.2125,1.8389,2.5584,2.3803-.8135.1164-1.3067.0631-1.3189.0618Z"/>
</svg>