<?xml version="1.0" encoding="UTF-8"?>
<svg id="Capa_1" data-name="Capa 1" xmlns="http://www.w3.org/2000/svg" viewBox="0 0 77.7146 34.1333">
  <defs>
    <style>
      .cls-1 {
        fill: #2a3f4b;
      }
    </style>
  </defs>
  <path id="Trazado_409" data-name="Trazado 409" class="cls-1" d="M33.8553,11.9923c0-1.6411.9-2.6782,2.3-2.6782.9622-.0752,1.836.561,2.06,1.5l-.624.1318c-.1793-.6206-.7543-1.0425-1.4-1.0269-1.117-.0068-1.669.8369-1.676,2.0708s.559,2.0669,1.676,2.0742c.964.0068,1.464-.6001,1.54-1.623h-1.061v-.5259h1.713c.011.1001.014.2612.014.2998.1464,1.2002-.7078,2.2915-1.9078,2.438-.1092.0132-.2192.0186-.3292.0151-1.3819.0059-2.3049-1.0171-2.3049-2.6758Z"/>
  <path class="cls-1" d="M40.7688,11.0475c-.9977-.1226-1.9058.5869-2.0284,1.5845-.009.0728-.0137.1465-.0139.2197-.0023,1.0044.8098,1.8198,1.8138,1.8223.9218.0034,1.7004-.6831,1.8128-1.5981.1226-.9976-.5867-1.9058-1.5844-2.0283ZM40.5447,14.2879c-.756,0-1.148-.5649-1.148-1.438,0-.8442.364-1.4302,1.148-1.4302.767,0,1.152.561,1.152,1.4302,0,.8511-.378,1.4385-1.152,1.438Z"/>
  <path class="cls-1" d="M60.8557,11.0475c-.9977-.1226-1.9058.5869-2.0284,1.5845-.009.0728-.0137.1465-.0139.2197-.0023,1.0044.8098,1.8198,1.8138,1.8223.9218.0034,1.7004-.6831,1.8128-1.5981.1226-.9976-.5867-1.9058-1.5844-2.0283ZM60.6316,14.2879c-.756,0-1.148-.5649-1.148-1.438,0-.8442.364-1.4302,1.148-1.4302.767,0,1.152.561,1.152,1.4302,0,.8511-.378,1.4385-1.152,1.438Z"/>
  <path class="cls-1" d="M58.3057,18.4308c-.9977-.1226-1.9058.5869-2.0284,1.5845-.009.0728-.0137.1465-.0139.2197-.0023,1.0044.8098,1.8198,1.8138,1.8223.9218.0034,1.7004-.6831,1.8128-1.5981.1226-.9976-.5867-1.9058-1.5844-2.0283ZM58.0817,21.6712c-.756,0-1.148-.5649-1.148-1.438,0-.8442.364-1.4302,1.148-1.4302.767,0,1.152.561,1.152,1.4302,0,.8511-.378,1.4385-1.152,1.438Z"/>
  <path id="Trazado_411" data-name="Trazado 411" class="cls-1" d="M42.9733,14.567v-5.1499h.621v1.6382c.2853-.3052.6885-.4722,1.106-.458,1.041,0,1.676.877,1.676,2.0352s-.631,2.042-1.679,2.042c-.4547.0137-.8892-.1875-1.173-.543v.436l-.551-.0005ZM45.7203,12.632c0-.8149-.354-1.4521-1.117-1.4521-.732,0-1.079.6001-1.079,1.4521s.34,1.459,1.1,1.459c.731.0005,1.0959-.6357,1.0959-1.459h0Z"/>
  <path id="Trazado_412" data-name="Trazado 412" class="cls-1" d="M47.0703,10.0221v-.6582h.617v.6582h-.617ZM47.0703,14.567v-3.8618h.617v3.8618h-.617Z"/>
  <path id="Trazado_413" data-name="Trazado 413" class="cls-1" d="M48.3813,12.6613c-.1342-.9966.565-1.9136,1.5618-2.0479.079-.0103.1585-.0161.2382-.0161,1.128,0,1.787.8442,1.731,2.2178h-2.872c.048.7998.451,1.2549,1.141,1.2549.4643.0166.8911-.2534,1.075-.6802l.594.2109c-.2739.6616-.9252,1.0874-1.641,1.0732-1.0034.0117-1.8265-.792-1.8384-1.7954-.0009-.0723.0026-.145.0104-.2173ZM49.0543,12.3034h2.22c-.076-.7578-.433-1.1328-1.068-1.1328-.6699-.0005-1.062.3999-1.1509,1.1328h-.001Z"/>
  <path id="Trazado_414" data-name="Trazado 414" class="cls-1" d="M52.5483,14.567v-3.8618h.551v.6108c.079-.146.1876-.2734.319-.375.3025-.23.6906-.3164,1.062-.2358v.6001c-.2931-.0825-.6078-.0288-.857.146-.333.2974-.502.7373-.454,1.1812v1.938l-.621-.0034Z"/>
  <path id="Trazado_415" data-name="Trazado 415" class="cls-1" d="M54.9973,14.567v-3.8618h.558v.5c.2905-.3955.7587-.6206,1.249-.6001,1.207,0,1.492,1.0942,1.492,1.8271v2.1348h-.625v-1.9351c0-.7261-.225-1.4229-1.016-1.4229-.621,0-1.031.4292-1.031,1.3232v2.0352l-.627-.0005Z"/>
  <path id="Trazado_417" data-name="Trazado 417" class="cls-1" d="M33.9253,20.0153c0-1.1592.635-2.0352,1.676-2.0352.4175-.0142.8207.1528,1.106.458v-1.6382h.621v5.1499h-.551v-.436c-.2841.355-.7184.5562-1.173.543-1.049.0005-1.679-.8828-1.679-2.0415ZM36.7773,20.0153c0-.855-.347-1.4521-1.079-1.4521-.764,0-1.117.6372-1.117,1.4521s.36,1.459,1.1,1.459c.756,0,1.096-.6108,1.096-1.459Z"/>
  <path id="Trazado_418" data-name="Trazado 418" class="cls-1" d="M37.9553,20.0441c-.1348-.9961.5635-1.9126,1.5596-2.0474.0797-.0107.16-.0166.2404-.0166,1.127,0,1.786.8442,1.731,2.2178h-2.871c.049.7998.451,1.2549,1.142,1.2549.4642.0161.8909-.2539,1.075-.6802l.593.2109c-.2735.6616-.925,1.0879-1.641,1.0732-1.004.0117-1.8275-.7925-1.8394-1.7964-.0009-.0723.0026-.1445.0103-.2163ZM38.6283,19.6862h2.22c-.076-.7578-.434-1.1328-1.069-1.1328-.671,0-1.063.3999-1.153,1.1328h.002Z"/>
  <path id="Trazado_419" data-name="Trazado 419" class="cls-1" d="M43.4373,21.9503v-5.1499h.618v5.1499h-.618Z"/>
  <path id="Trazado_420" data-name="Trazado 420" class="cls-1" d="M44.7493,20.9064c-.0136-.5522.3759-1.0327.919-1.1338.5551-.1279,1.117-.2246,1.683-.29-.018-.6152-.274-.9082-.923-.9082-.4402-.0376-.8433.248-.954.6758l-.586-.1831c.1735-.6968.8328-1.1602,1.547-1.0869.5782-.0635,1.1355.2368,1.4.7549.0956.2646.1367.5454.121.8262v2.3892h-.548v-.6001c-.2985.4717-.8307.7432-1.388.708-.6285.0698-1.1945-.3833-1.2642-1.0117-.0052-.0469-.0074-.0933-.0069-.1401ZM47.2812,20.6344c.0441-.1997.0652-.4033.063-.6079-.4715.0483-.9392.1279-1.4.2388-.309.1001-.583.2759-.583.6372,0,.3179.218.6221.753.6221.5574.0386,1.0569-.3423,1.1671-.8901h0Z"/>
  <path id="Trazado_421" data-name="Trazado 421" class="cls-1" d="M49.9703,21.9503v-5.1499h1.974c.1232,0,.2463.0093.368.0288.8809.2271,1.4111,1.125,1.1843,2.0059-.1496.5806-.6033,1.0347-1.1843,1.1841-.1218.0186-.2448.0278-.368.0278h-1.356v1.8999l-.618.0034ZM50.5883,19.4435h1.335c.1049.001.2095-.0103.312-.0322.5452-.207.819-.8174.6118-1.3623-.1072-.2822-.3298-.5044-.6118-.6118-.1025-.022-.2072-.0332-.312-.0322h-1.335v2.0386Z"/>
  <path id="Trazado_422" data-name="Trazado 422" class="cls-1" d="M54.1023,21.9503v-3.8618h.551v.6108c.0794-.146.1884-.2734.32-.375.3022-.23.6898-.3159,1.061-.2358v.6001c-.2931-.082-.6075-.0283-.857.146-.3328.2974-.5019.7373-.454,1.1812v1.938l-.621-.0034Z"/>
  <path id="Trazado_424" data-name="Trazado 424" class="cls-1" d="M61.3873,21.9503l-1.36-3.8618h.625l1.051,3.0498,1.048-3.0498h.628l-1.36,3.8618h-.632Z"/>
  <path id="Trazado_425" data-name="Trazado 425" class="cls-1" d="M63.9343,17.4054v-.6582h.621v.6582h-.621ZM63.9343,21.9503v-3.8618h.621v3.8618h-.621Z"/>
  <path id="Trazado_426" data-name="Trazado 426" class="cls-1" d="M65.4553,21.9503v-3.8618h.555v.5c.2906-.3955.7588-.6201,1.249-.6001,1.207,0,1.491,1.0942,1.491,1.8271v2.1348h-.624v-1.9351c0-.7261-.225-1.4229-1.016-1.4229-.621,0-1.031.4292-1.031,1.3232v2.0352l-.624-.0005Z"/>
  <path id="Trazado_427" data-name="Trazado 427" class="cls-1" d="M69.2663,20.0221c-.1276-.9902.5718-1.8965,1.5621-2.0244.0769-.0098.1544-.0146.2319-.0146.7283-.0425,1.3895.4229,1.595,1.123l-.61.1899c-.1395-.4282-.5418-.7153-.992-.708-.771,0-1.124.6001-1.131,1.4341.007.8618.385,1.4341,1.131,1.4341.4418.0234.8438-.2544.978-.6758l.624.168c-.2202.6899-.8765,1.146-1.6,1.1118-1.144-.0029-1.7791-.8579-1.7891-2.0381Z"/>
  <path id="Trazado_428" data-name="Trazado 428" class="cls-1" d="M73.1933,17.4054v-.6582h.618v.6582h-.618ZM73.1933,21.9503v-3.8618h.618v3.8618h-.618Z"/>
  <path id="Trazado_429" data-name="Trazado 429" class="cls-1" d="M74.5043,20.9064c-.0131-.5522.3766-1.0327.92-1.1338.5548-.1279,1.1163-.2251,1.682-.29-.017-.6152-.274-.9082-.923-.9082-.4401-.0371-.843.2485-.954.6758l-.586-.1831c.1738-.6963.8328-1.1597,1.547-1.0869.5786-.0659,1.137.2354,1.4.7549.0956.2646.1367.5454.121.8262v2.3892h-.548v-.6001c-.2981.4717-.83.7437-1.387.708-.6291.0698-1.1955-.3838-1.2651-1.0127-.0051-.0464-.0074-.0928-.0069-.1392ZM77.0373,20.6344c.0443-.1997.0651-.4033.062-.6079-.4714.0483-.9391.1284-1.4.2388-.309.1001-.583.2759-.583.6372,0,.3179.219.6221.753.6221.5576.0386,1.0574-.3423,1.168-.8901Z"/>
  <path id="Trazado_430" data-name="Trazado 430" class="cls-1" d="M33.9253,27.3981c0-1.1592.635-2.0352,1.676-2.0352.4175-.0142.8207.1528,1.106.458v-1.6382h.621v5.1499h-.551v-.437c-.2836.356-.7182.5571-1.173.5439-1.049.0005-1.679-.8823-1.679-2.0415ZM36.7773,27.3981c0-.855-.347-1.4521-1.079-1.4521-.764,0-1.117.6372-1.117,1.4521s.36,1.459,1.1,1.459c.756,0,1.096-.6108,1.096-1.459Z"/>
  <path id="Trazado_431" data-name="Trazado 431" class="cls-1" d="M37.9553,27.4274c-.1348-.9961.5635-1.9126,1.5596-2.0474.0797-.0107.16-.0166.2404-.0166,1.127,0,1.786.8442,1.731,2.2168h-2.871c.049.7998.451,1.2559,1.142,1.2559.4642.0161.8909-.2539,1.075-.6802l.593.2109c-.2735.6616-.925,1.0879-1.641,1.0732-1.0034.0127-1.827-.791-1.8395-1.7944-.0009-.0728.0026-.1455.0104-.2183ZM38.6283,27.0695h2.22c-.076-.7578-.434-1.1338-1.069-1.1338-.671-.0005-1.063.4004-1.153,1.1333l.002.0005Z"/>
  <path id="Trazado_432" data-name="Trazado 432" class="cls-1" d="M42.1893,29.3332v-5.1499h.617v5.1499h-.617Z"/>
  <path id="Trazado_433" data-name="Trazado 433" class="cls-1" d="M44.9553,29.3332v-5.1499h.624l2.606,4.0229v-4.0229h.624v5.1499h-.624l-2.606-4.0269v4.0269h-.624Z"/>
  <path id="Trazado_434" data-name="Trazado 434" class="cls-1" d="M49.4363,27.4274c-.1348-.9961.5635-1.9126,1.5596-2.0474.0797-.0107.16-.0166.2404-.0166,1.127,0,1.786.8442,1.731,2.2168h-2.873c.049.7998.451,1.2559,1.142,1.2559.4642.0161.8909-.2539,1.075-.6802l.593.2109c-.2734.6616-.9244,1.0874-1.64,1.0732-1.0034.0117-1.8265-.792-1.8385-1.7954-.0009-.0723.0026-.145.0104-.2173ZM50.1093,27.0695h2.22c-.076-.7578-.434-1.1338-1.068-1.1338-.6699-.0005-1.062.4004-1.1519,1.1333v.0005Z"/>
  <path id="Trazado_435" data-name="Trazado 435" class="cls-1" d="M53.5333,27.6051v-2.1348h.624v1.9351c0,.7261.226,1.4229,1.017,1.4229.621,0,1.03-.4292,1.03-1.3232v-2.0352h.621v3.8628h-.551v-.5c-.291.395-.7589.6196-1.249.6001-1.208.0005-1.492-1.0938-1.492-1.8276Z"/>
  <path id="Trazado_436" data-name="Trazado 436" class="cls-1" d="M57.4553,27.3981c0-1.1592.635-2.0352,1.675-2.0352.4553-.0156.8911.1846,1.176.54v-.4331h.552v5.5791h-.621v-2.0742c-.2821.3066-.6833.4766-1.1.4648-1.0561.0005-1.6821-.8823-1.6821-2.0415ZM60.3063,27.3981c0-.855-.346-1.4521-1.079-1.4521-.763,0-1.117.6372-1.117,1.4521s.361,1.459,1.1,1.459c.751,0,1.0909-.6108,1.0909-1.459h.0051Z"/>
  <path id="Trazado_437" data-name="Trazado 437" class="cls-1" d="M61.6163,27.6051v-2.1348h.625v1.9351c0,.7261.225,1.4229,1.016,1.4229.621,0,1.031-.4292,1.031-1.3232v-2.0352h.621v3.8628h-.554v-.5c-.291.395-.7589.6196-1.249.6001-1.205.0005-1.49-1.0938-1.49-1.8276Z"/>
  <path id="Trazado_438" data-name="Trazado 438" class="cls-1" d="M65.5333,27.4274c-.1342-.9966.565-1.9136,1.5618-2.0479.079-.0103.1585-.0161.2382-.0161,1.128,0,1.787.8442,1.731,2.2168h-2.872c.048.7998.451,1.2559,1.141,1.2559.4643.0166.8911-.2534,1.075-.6802l.594.2109c-.2739.6616-.9252,1.0874-1.641,1.0732-1.0034.0117-1.8265-.792-1.8384-1.7954-.0009-.0723.0026-.145.0104-.2173ZM66.2063,27.0695h2.22c-.076-.7578-.433-1.1338-1.068-1.1338-.67-.0005-1.062.4004-1.152,1.1333v.0005ZM67.6153,23.7003h.5l-.455,1.1802h-.5l.455-1.1802Z"/>
  <path id="Trazado_439" data-name="Trazado 439" class="cls-1" d="M69.5923,29.3332v-3.8628h.555v.5c.2907-.395.7589-.6201,1.249-.6001,1.207,0,1.492,1.0952,1.492,1.8281v2.1348h-.625v-1.9351c0-.7261-.225-1.4229-1.016-1.4229-.621,0-1.031.4292-1.031,1.3232v2.0352l-.624-.0005Z"/>
  <g id="Grupo_65" data-name="Grupo 65">
    <g id="Grupo_64" data-name="Grupo 64">
      <path id="Trazado_440" data-name="Trazado 440" class="cls-1" d="M6.4343,19.6049l-.1607.475-.465.1457.461.1657.1417.4789.1607-.475.465-.1467-.461-.1657-.1417-.478Z"/>
      <path id="Trazado_441" data-name="Trazado 441" class="cls-1" d="M6.4413,17.694l-.1607.476-.465.1457.461.1657.1407.4789.1607-.476.465-.1457-.461-.1657-.1407-.4789Z"/>
      <path id="Trazado_442" data-name="Trazado 442" class="cls-1" d="M6.9032,15.9215l-.1607.475-.465.1457.461.1657.1417.4789.1607-.475.465-.1467-.461-.1657-.1417-.478Z"/>
      <path id="Trazado_443" data-name="Trazado 443" class="cls-1" d="M7.5389,14.2172l-.1607.475-.465.1457.461.1657.1417.4789.1607-.476.465-.1457-.461-.1657-.1417-.478Z"/>
      <path id="Trazado_444" data-name="Trazado 444" class="cls-1" d="M8.7363,12.8243l-.1596.476-.465.1457.461.1657.1417.4789.1607-.475.465-.1457-.461-.1657-.1428-.4799Z"/>
      <path id="Trazado_445" data-name="Trazado 445" class="cls-1" d="M10.1202,11.7539l-.1607.475-.465.1457.461.1657.1417.4789.1607-.475.465-.1457-.462-.1657-.1407-.4789Z"/>
      <path id="Trazado_446" data-name="Trazado 446" class="cls-1" d="M11.6169,11.0055l-.1607.475-.465.1457.462.1657.1417.4789.1607-.476.465-.1457-.462-.1657-.1417-.478Z"/>
      <path id="Trazado_447" data-name="Trazado 447" class="cls-1" d="M13.4041,10.5334l-.1607.476-.465.1457.461.1657.1417.4789.1607-.475.465-.1457-.461-.1657-.1417-.4799Z"/>
      <path id="Trazado_448" data-name="Trazado 448" class="cls-1" d="M22.16,19.6049l-.1417.4789-.462.1657.465.1467.1607.475.1417-.4789.461-.1657-.465-.1457-.1596-.476Z"/>
      <path id="Trazado_449" data-name="Trazado 449" class="cls-1" d="M22.17,18.955l.1417-.4789.461-.1657-.465-.1457-.1607-.476-.1417.4789-.461.1657.465.1457.1607.476Z"/>
      <path id="Trazado_450" data-name="Trazado 450" class="cls-1" d="M21.708,17.1868l.1417-.4789.461-.1657-.465-.1457-.1596-.475-.1417.478-.461.1657.465.1467.1596.475Z"/>
      <path id="Trazado_451" data-name="Trazado 451" class="cls-1" d="M21.679,14.838l-.465-.1457-.1607-.475-.1417.4789-.461.1657.465.1457.1607.476.1407-.4789.462-.1666Z"/>
      <path id="Trazado_452" data-name="Trazado 452" class="cls-1" d="M20.0187,13.2993l-.1596-.476-.1417.4789-.462.1657.465.1457.1607.475.1417-.4789.461-.1657-.465-.1447Z"/>
      <path id="Trazado_453" data-name="Trazado 453" class="cls-1" d="M18.474,11.7539l-.1417.4789-.461.1657.465.1457.1607.475.1417-.4789.461-.1657-.465-.1457-.1607-.475Z"/>
      <path id="Trazado_454" data-name="Trazado 454" class="cls-1" d="M16.9773,11.0055l-.1417.478-.461.1657.464.1457.1607.476.1417-.4789.461-.1657-.465-.1457-.1597-.475Z"/>
      <path id="Trazado_455" data-name="Trazado 455" class="cls-1" d="M15.1902,10.5334l-.1417.4789-.461.1657.465.1457.1607.475.1417-.4789.461-.1657-.465-.1457-.1607-.475Z"/>
      <path id="Trazado_456" data-name="Trazado 456" class="cls-1" d="M27.4325,27.32l-1.8709.9462c-.3636.1861-.6383.5091-.7633.8979l-.0139.0629.0579.0258c.0973.037.2012.0541.3054.0497.2757-.0112.5492-.0536.8152-.1267l2.0156-1.1094c.1806-.1491.2205-.4102.0928-.6066-.1179-.2105-.3842-.286-.5948-.1681-.0152.0088-.0298.018-.0438.0283Z"/>
      <path id="Trazado_457" data-name="Trazado 457" class="cls-1" d="M5.667,9.2155c.6493-.2641,1.3894-.1705,1.9527.2465l5.6347-.8234c.3457-.0448.6942-.0643,1.0427-.058h0c.3065-.0039.613.0136.917.0531l6.2743.913c.494-.0477.9544-.2714,1.2972-.6305.0504-.0512.0567-.1311.015-.1895-.0412-.0575-.1191-.0745-.1806-.04-.6865.399-1.4149.0287-2.1862-.3644h0c-.5422-.3484-1.169-.5423-1.8131-.5608.4073-.4059.93-.6763,1.4967-.7742.8774-.1145,1.634-.6724,2.0027-1.4768.0279-.0658.0043-.1423-.0559-.1808-.0605-.0365-.1391-.0214-.1816.0351-.4869.6397-1.2972.5837-2.1573.5247-.6344-.1057-1.2858-.037-1.8839.1998.2257-.5355.6084-.9905,1.0976-1.3043.7668-.4546,1.254-1.2638,1.2972-2.1545.0019-.0716-.0492-.133-.1197-.1447-.0692-.0097-.1351.0326-.1547.0999-.2125.7834-.9828,1.0529-1.7961,1.3369-.6286.1535-1.2045.4726-1.6674.9247.01-.5851.193-1.1542.5258-1.6356.5392-.7172.6886-1.6541.3992-2.5033-.0244-.0663-.0948-.1043-.1636-.0877-.0669.021-.109.0872-.0998.1569.0938.8083-.5179,1.3598-1.1655,1.944-.5255.3903-.9385.9126-1.1974,1.5138-.2085-.5486-.2509-1.1459-.1217-1.7184.2354-.8658.0265-1.792-.5578-2.4726-.0476-.0526-.1276-.0594-.1836-.0161-.0566.0438-.0731.1228-.0389.1856.3872.7094.0269,1.4597-.3542,2.2563-.3395.5661-.5269,1.2103-.5438,1.8699-.3978-.4273-.659-.9632-.7504-1.5396-.0996-.8853-.6381-1.6614-1.4328-2.0643-.0647-.0287-.1407-.0034-.1756.058-.0361.0619-.0221.1408.0329.1866.6207.4989.5668,1.3389.5099,2.2242-.1035.6529-.0376,1.3213.1916,1.9416-.5261-.2382-.9673-.6309-1.2652-1.1255-.4179-.7781-1.2079-1.2858-2.0894-1.3423-.0711-.001-.1316.0512-.1407.1218-.0112.0706.0314.1389.0998.1598.7604.2197,1.0208,1.0139,1.2972,1.8539.1449.6412.4545,1.2332.8981,1.7184-.5721-.0122-1.1263-.2007-1.5866-.5408-.68-.5564-1.6025-.7143-2.4287-.4151-.0664.0273-.1026.0989-.0848.1686.0163.0687.0814.1145.1516.1067.7833-.0999,1.3191.534,1.8859,1.1976.3705.5345.8773.9603,1.4678,1.2332-.5288.2144-1.1112.2587-1.6663.1267-.8437-.2407-1.7519-.0234-2.3948.5739-.0507.0507-.0574.1311-.016.1895.0386.0516.1082.0697.1669.0424Z"/>
      <path id="Trazado_458" data-name="Trazado 458" class="cls-1" d="M9.5684,32.3501l-.0858-.037h0l-1.4319-.6168c-.2066-.0823-.4191-.1491-.6356-.1998-.3353-.0736-.686-.0088-.9729.1798-.1138.0658.006.1379.006.1379,0,0,1.7821.7805,1.8539.7981.0978.0322.1979.0575.2993.075.337.0667.6866-.0054.9699-.1998.1178-.0677-.0029-.1374-.0029-.1374Z"/>
      <path id="Trazado_459" data-name="Trazado 459" class="cls-1" d="M6.2417,30.864l-.0858-.037h0l-1.4319-.6168c-.2065-.0828-.4189-.1496-.6356-.1998-.3351-.0736-.6858-.0093-.9729.1788-.1138.0658.006.1379.006.1379,0,0,1.7831.7805,1.855.7981.0976.0331.1977.058.2993.075.3367.0667.686-.0054.9689-.1998.1127-.0663-.003-.1364-.003-.1364Z"/>
      <path id="Trazado_460" data-name="Trazado 460" class="cls-1" d="M12.957,33.6962l-.0858-.0361h0l-.918-.399-.0858-.037-.0868-.038-.3412-.1467c-.2065-.0828-.419-.1496-.6356-.1998-.3353-.0741-.6861-.0093-.9729.1798-.1127.0648.007.1369.007.1369,0,0,1.7821.7815,1.8539.7981.0419.0132.0838.0258.1247.0361s.0649.018.0938.0248.0599.0122.0838.0141h.008c.3341.0648.6803-.0068.9609-.1998.1147-.0638-.006-.1335-.006-.1335Z"/>
      <path id="Trazado_461" data-name="Trazado 461" class="cls-1" d="M3.7521,29.2548l.0569-.0258-.0139-.0629c-.1247-.3888-.3995-.7123-.7633-.8979l-1.8709-.9462c-.1949-.1413-.4676-.0979-.609.097-.0104.0141-.02.0292-.0286.0448-.1277.1963-.0878.4575.0928.6066l2.0146,1.1094c.2664.0731.5402.1155.8162.1267.1042.0039.2081-.0136.3053-.0516Z"/>
      <path id="Trazado_462" data-name="Trazado 462" class="cls-1" d="M21.1771,31.496c-.2166.0507-.4291.1174-.6356.1998l-1.4319.6168h0l-.0858.037s-.1207.0697-.008.1369c.2829.1944.6322.2665.9689.1998.1015-.0175.2016-.0424.2993-.075.0719-.0141,1.855-.7981,1.855-.7981,0,0,.1197-.0716.006-.1379-.2856-.1871-.6342-.2514-.9679-.1793Z"/>
      <path id="Trazado_463" data-name="Trazado 463" class="cls-1" d="M24.5089,30.0109c-.2167.0502-.4292.1169-.6356.1998l-1.4328.6168h0l-.0848.037s-.1207.0697-.009.1369c.2833.1944.6329.2665.9699.1998.1016-.0171.2017-.0419.2993-.075.0719-.0141,1.8539-.7981,1.8539-.7981,0,0,.1197-.0716.006-.1379-.2853-.1866-.6336-.2514-.9668-.1793Z"/>
      <path id="Trazado_464" data-name="Trazado 464" class="cls-1" d="M17.7875,32.8426c-.2163.0507-.4284.1174-.6346.1998l-.3412.1467-.0868.038-.0868.037-.918.399h0l-.0848.0361s-.1217.0697-.009.1369c.2806.1925.6268.2646.9609.1998h.009c.0239,0,.0519-.0078.0828-.0141s.0619-.0151.0938-.0248.0838-.0229.1257-.0361c.0719-.0132,1.8539-.7981,1.8539-.7981,0,0,.1197-.0716.006-.1369-.2857-.1895-.6358-.2553-.9709-.1832Z"/>
      <path id="Trazado_465" data-name="Trazado 465" class="cls-1" d="M28.4114,11.4226c-.1715-.2636-.449-.439-.7604-.4819l-12.4369-1.81c-.6093-.0706-1.2247-.0706-1.834,0L.9422,10.9407c-.3111.0429-.5883.2188-.7593.4819-.1733.2689-.2264.5978-.1467.9072l3.193,13.1033.7115,2.9238c.1806.6261.6147,1.1479,1.1974,1.4397l5.981,2.5886.7165.3104.0838.0361.0838.0361.48.2076.892.3864c.2664.1067.5502.1632.8372.1666h.1746c.2873-.0034.5714-.0599.8382-.1666l.892-.3864.4789-.2076.0848-.0361.0828-.0361.7165-.3104,5.981-2.5886c.5823-.2923,1.0163-.8141,1.1974-1.4397l.7115-2.9238,3.193-13.1033c.0778-.3104.0228-.6392-.1518-.9072ZM7.2306,29.6441l-.0838-.038h0l-1.4189-.6465c-.201-.0979-.3945-.2105-.5788-.3372-.2846-.2027-.4792-.5077-.5428-.8512-.0329-.1296.0998-.0896.0998-.0896,0,0,1.7771.7981,1.836.84.0914.0507.1786.1086.2604.1734.2813.2071.4713.5155.5299.8599.0299.1311-.1018.0892-.1018.0892h0ZM10.5104,31.2514l-.0838-.039h0l-1.4189-.6475c-.2011-.0979-.3945-.2105-.5788-.3372-.284-.2032-.4784-.5082-.5428-.8512-.0329-.1296.0998-.0896.0998-.0896,0,0,1.7762.7981,1.835.84.0911.0512.1782.1091.2604.1734.2811.2076.4711.5155.5299.8599.032.134-.1007.0911-.1007.0911ZM11.9712,29.703c-.4211-.2787-.8744-.5057-1.3501-.6753,0,0-.1217-.058-.1577-.0799-.6253-.3133-1.1363-.8151-1.4608-1.4349-.1257-.2563-.2365-.5218-.3473-.7873-.0998-.2266-.1916-.4541-.2993-.6743-.1184-.247-.1839-.5165-.1926-.7903-.0063-.227.0087-.4546.0449-.6787.0519-.3503.0998-.6987.1287-1.0539.0189-.2246,0-.4521.011-.6777.007-.1647.1088-.2314.2495-.1496.1013.0638.1875.1491.2524.2495.1219.2256.1789.4809.1646.7372.005.1345.011.2685.017.399h0l.005.7474c-.4989.2095.1906,1.2604.3243,1.4436.1955.2811.4109.5476.6446.7981.0998.1135.1756.1934.2055.2266.0202.021.049.0312.0778.0278.0216-.0015.0418-.0112.0569-.0268.0375-.0385.0375-.1004,0-.1389-.4622-.4614-.8593-.9837-1.1804-1.5528-.0474-.0853-.0846-.1764-.1108-.2704-.0708-.2992.1766-.4302.451-.2475l.0309.0219c.0752.0502.1459.1072.2115.1696.3303.3264.7035.5988,1.0367.9189.22.2373.4801.4336.7683.5808,0,0,.468.1608.6985.2227.4126.1096.8113.2665,1.1884.4668.0719.0599.2275.1934.2454.1998-.3059.3401-.5588.7245-.7504,1.1396-.214.4429-.3951.9014-.5418,1.371-.0266-.0619-.06-.1208-.0998-.1754l-.013-.0161c-.0895-.1106-.1935-.2085-.3093-.2909v.0005ZM12.9601,22.3431c-.2468.1613-.5776.0921-.7389-.1549-.0249-.038-.0448-.0789-.0593-.1223l-.3802-.7625c-.0574-.1082-.1797-.1647-.2993-.1389l-1.5686.3922c-.1097.0268-.2225.0097-.2495-.0409s.023-.1476.1138-.2188l4.136-3.242v9.4126c-.0741.0536-.1435.1135-.2076.1788v-5.7126l-.7464.4093ZM11.5851,26.5809c-.2662-.1549-.5085-.3474-.7194-.572-.017-.0171-.0539-1.2025-.0699-1.7111,0-.1267.0818-.1886.1866-.1208.104.059.1883.1476.2425.2543.0878.2183.1442.4478.1677.6816.0149.3747.0502.7489.1058,1.1196.0204.1179.0494.2344.0867.3479v.0005ZM10.712,25.8705c-.2215-.2076-.472-.4141-.6646-.5988-.0349-.0322-.028-.1179-.03-.1657-.021-.5486-.0359-1.0977-.0539-1.6453-.006-.1817.0798-.2417.2405-.1598.1526.0745.2628.2149.2993.381.0567.2631.096.5296.1177.7981.03.4312.0669.9199.0908,1.39v.0005ZM9.788,23.8968c.025.3893.0639.8151.0828,1.2283-.1909-.1691-.4278-.2772-.6805-.3104,0-.0161-.0469-1.4519-.0599-1.7452-.011-.2154.1048-.2992.2844-.1817.0962.0702.1762.1608.2345.2646.1057.2329.1534.4882.1387.744v.0005ZM16.1092,32.6775l-.3203.1389c-.3303-2.5486-.7104-3.6921-.8172-3.6921-.0619,0,.1776.3381.6207,3.7808l-.3752.1618c-.2651.1062-.5476.1627-.8332.1666.005-.5647.005-1.0977,0-1.3062,0-.0502-.0407-.0906-.0908-.0906s-.0908.0404-.0908.0906v1.3062c-.2859-.0039-.5688-.0599-.8342-.1666l-.3752-.1618c.444-3.4427.6835-3.7808.6216-3.7808-.1068,0-.4869,1.1474-.8172,3.6921l-.3213-.1389-.4411-.1915c.013-.0858.0269-.1715.0419-.2563.008-.0516.018-.0999.0269-.1554l.018-.0999c.01-.0551.021-.1086.0319-.1637.005-.0287.011-.059.017-.0887l.0329-.1569c.007-.0307.013-.0629.02-.0926l.0329-.1447.0239-.0999c.01-.0429.021-.0848.0309-.1267s.02-.0799.03-.1189.0189-.0706.028-.1067.025-.0926.0369-.1389l.023-.0799c.015-.0551.0309-.1096.0469-.1637.1582-.5452.361-1.0763.6066-1.5883.1853-.4078.433-.7839.7344-1.1148.02-.02.0399-.04.0599-.058l.0349-.0307c.1448-.208.4309-.2592.639-.1145.0446.0312.0833.0697.1144.1145l.0349.0307c.02.018.0399.038.0599.058.3013.3313.5492.707.7344,1.1148.2459.5116.4492,1.0431.6077,1.5883.015.0541.0309.1086.0459.1637.008.0268.016.0531.023.0799.013.0458.0259.0926.0379.1389s.018.0706.028.1067.0189.0789.0289.1189.021.0838.0319.1267l.0239.0999.0329.1447.0189.0926c.012.0521.023.1043.0329.1569l.018.0887c.011.0551.0219.1086.0319.1637.006.0331.011.0658.017.0999.01.0516.0189.0999.028.1554.015.0848.028.1705.0409.2563l-.4333.1915ZM18.9281,21.5197c-.028.0507-.1397.0677-.2495.0409l-1.5686-.3922c-.118-.0239-.2377.0326-.2943.1389l-.3812.7625c-.0937.2797-.3962.4302-.6758.3367-.0432-.0146-.0843-.0346-.1225-.0594l-.7524-.4093v5.7126c-.064-.0653-.1334-.1252-.2076-.1788l.005-9.4126,4.136,3.242c.0868.0667.1376.1657.1107.2149v.0039ZM18.944,23.1562c.0584-.1043.1387-.1944.2355-.2646.1786-.116.2943-.0341.2844.1817-.013.2933-.0589,1.7291-.0599,1.7452-.253.0331-.4903.1413-.6815.3104.0189-.4132.0589-.839.0828-1.2283-.0155-.2573.0321-.514.1386-.7489v.0044ZM18.6307,23.4554c-.0189.5476-.0339,1.0977-.0539,1.6453,0,.0477,0,.1335-.03.1657-.1926.1895-.443.399-.6646.5988.023-.4702.0599-.9588.0938-1.3969.022-.2685.0617-.535.1188-.7981.0364-.1661.1467-.3065.2993-.381.1557-.0755.2415-.0156.2365.1661ZM17.7975,24.2978c-.015.5087-.0529,1.6965-.0699,1.7111-.2109.2246-.4532.4171-.7194.572.0373-.114.0663-.2305.0868-.3484.0556-.3708.0909-.745.1058-1.1196.0235-.2339.0799-.4633.1677-.6816.0543-.1072.139-.1954.2435-.2543.1048-.0682.1895-.0063.1856.1203v.0005ZM16.623,29.703c-.1149.0833-.2182.1812-.3073.2914l-.013.0161c-.0394.0546-.0728.1135-.0998.1754-.146-.4697-.3267-.9282-.5408-1.371-.192-.4151-.4449-.799-.7504-1.1396.017,0,.1736-.1389.2445-.1998.3771-.2002.7758-.3566,1.1884-.4668.2275-.0619.6985-.2217.6985-.2227.2886-.1467.5487-.343.7683-.5808.3343-.3235.7065-.5929,1.0367-.9189.0661-.0624.1372-.1189.2125-.1696l.0309-.0219c.2744-.1827.5219-.0516.451.2475-.0266.094-.0638.1847-.1108.2704-.3218.5686-.7193,1.0909-1.1814,1.5528-.0375.0385-.0375.1004,0,.1389.0149.0156.0353.0253.0569.0268.0289.0034.0576-.0068.0778-.0278.0289-.0331.1048-.1125.2046-.2266.234-.2504.4498-.5169.6456-.7981.1327-.1837.8182-1.2341.3243-1.4436v-.7474h0c.006-.1345.012-.2685.017-.399-.0143-.2563.0427-.5116.1646-.7372.065-.1009.1516-.1861.2535-.2495.1397-.0819.2425-.0151.2495.1496.008.2256-.009.4531.01.6777.0319.3523.0769.7035.1287,1.0539.0371.2241.0521.4517.0449.6787-.009.2738-.0742.5428-.1916.7903-.1068.2207-.1996.4482-.2993.6743-.1118.2655-.2225.5311-.3473.7873-.3247.6193-.8356,1.1211-1.4608,1.4349-.0369.0219-.1587.0799-.1587.0799-.4759.1696-.9296.3956-1.3512.6738l.004.0005ZM20.1643,30.2307c-.1837.1267-.3769.2397-.5777.3372l-1.4199.6475h0l-.0848.039s-.1317.0429-.0998-.0877c.0592-.3445.249-.6524.5299-.8599.0824-.0643.1695-.1223.2604-.1734.0589-.0448,1.836-.84,1.836-.84,0,0,.1327-.04.0998.0896-.0654.342-.2602.6456-.5439.8478ZM23.4442,28.6233c-.1838.1267-.3769.2397-.5777.3372l-1.4199.6465h0l-.0838.038s-.1327.0419-.0998-.0877c.058-.3445.2477-.6529.5289-.8599.0823-.0648.1697-.1228.2615-.1734.0579-.0448,1.835-.84,1.835-.84,0,0,.1327-.04.0998.0896-.0643.343-.2593.6475-.5439.8492v.0005ZM27.9723,12.1782l-3.229,13.2061-10.065-8.137v-1.8587h.028l.2325.6855c.0314.0775.1199.115.1975.0838.0007-.0005.0014-.0005.0021-.001.0789-.0361.1146-.1286.0808-.2085l-.2265-.4521,1.1155.7791c.0741.0424.1686.0171.2111-.0575.0001,0,.0003-.0005.0004-.0005.042-.0765.0171-.1725-.0569-.2188l-.5558-.2792,1.2862.4711c.1331.0356.2699-.0434.3057-.1764.0002-.0005.0004-.0015.0007-.0024.0374-.135-.0396-.2753-.1736-.3162l-.9589-.1998.6066.0438c.1417,0,.2565-.115.2565-.2563,0-.1418-.1149-.2568-.2565-.2568l-1.4508.1057,1.0228-.3761c.1144-.1203.1144-.3089,0-.4292l-1.843-1.1796c-.0526-.0536-.1245-.0838-.1996-.0838h-.0239c-.0752-.0005-.1472.0297-.1996.0838l-1.843,1.1796c-.1144.1203-.1144.3089,0,.4292l1.0228.3761-1.4498-.1057c-.1417,0-.2565.115-.2565.2568,0,.1413.1149.2563.2565.2563l.6057-.0438-.9589.1998c-.1337.0414-.2105.1812-.1736.3162.0348.134.1716.2144.3055.1793.0006,0,.0012-.0005.0018-.0005l1.2862-.4711-.5568.2792c-.074.0463-.0986.1428-.0559.2188.0415.0741.1353.1004.2093.059.0004-.0005.0009-.0005.0013-.001l1.1155-.7791-.2265.4521c-.0333.0799.0024.172.0808.2085.0779.0322.1672-.0049.1995-.0828h.0001l.2315-.6855h.0289v1.8587L3.8379,25.3843.6089,12.1782c-.0374-.1389-.0149-.287.0619-.4083.0781-.1179.2038-.1959.3442-.2134l12.4379-1.81c.5531-.0624,1.1113-.0624,1.6644,0l12.4379,1.81c.1403.0175.266.0955.3442.2134.0805.1199.1069.2675.0729.4078v.0005Z"/>
      <path id="Trazado_466" data-name="Trazado 466" class="cls-1" d="M14.2053,31.2373c-.0053.0502.0312.0955.0817.1009s.0956-.0312.1009-.0814c.0007-.0068.0007-.0132,0-.0195.0228-1.0431-.0075-2.0868-.0908-3.127-.0831,1.0402-.1138,2.0838-.0918,3.127Z"/>
    </g>
  </g>
</svg>