<?xml version="1.0" encoding="UTF-8"?>
<svg id="Capa_1" data-name="Capa 1" xmlns="http://www.w3.org/2000/svg" viewBox="0 0 86.527 62.932">
  <defs>
    <style>
      .cls-1 {
        fill: #fff;
      }
    </style>
  </defs>
  <path id="Trazado_691-2" data-name="Trazado 691-2" class="cls-1" d="M38.65,19.07c-.423-.04-.815-.063-1.19-.063-2.955,0-4.374,1.281-6,3.215-1.627-1.931-3.042-3.215-6-3.215-.373,0-.765.023-1.186.063-2.557.246-5.518,2.594-5.88,7.091v1.49c.333,4.3,3.58,9.6,13.067,16.263,9.483-6.659,12.739-11.955,13.071-16.262v-1.49c-.371-4.5-3.326-6.836-5.882-7.091M37.55,33.523c-1.231,0,4.972-5.845.238-10.091-1.006-.815-.883-1.477-.181-1.767s1.552.229,2.246.842c4.859,4.253-1.069,11.016-2.3,11.016M70.788,47.192v-11.8h-18.412v-7.865h18.412v-11.787l15.739,15.727-15.739,15.725ZM55.06,43.267h7.866v11.806c.0017,4.3387-3.5142,7.8573-7.853,7.859-.0043,0-.0087,0-.013,0H7.866C3.5267,62.937.005,59.4233,0,55.084c0-.0037,0-.0073,0-.011V7.864C0,3.5208,3.5208,0,7.864,0c.0007,0,.0013,0,.002,0h47.194c4.3426-.0017,7.8643,3.5174,7.866,7.86v11.804h-7.866V7.864H7.866v47.2h47.194v-11.797Z"/>
</svg>